<?xml version="1.0" standalone="no"?>
<!DOCTYPE svg PUBLIC "-//W3C//DTD SVG 1.1//EN" "http://www.w3.org/Graphics/SVG/1.1/DTD/svg11.dtd">
<svg xmlns="http://www.w3.org/2000/svg">
<defs >
<font id="Kalam" horiz-adv-x="540" ><font-face
    font-family="Kalam"
    units-per-em="1000"
    panose-1="2 0 0 0 0 0 0 0 0 0"
    ascent="1063"
    descent="-498"
    alphabetic="0" />
<glyph unicode=" " horiz-adv-x="401" />
<glyph unicode="!" horiz-adv-x="371" d="M184 22Q184 15 174 6T155 -3Q130 -3 99 28T68 80T85 122T119 143T160 95T184 22ZM299 748Q299 663 256 449T186 235Q170 235 156 251T142 286Q141 292 154 358T183 543T198 784Q198 810 214 810Q233 810 266 786T299 748Z" />
<glyph unicode="&quot;" horiz-adv-x="331" d="M313 803Q313 750 298 652T263 553Q253 553 241 565T229 585T238 677T247 827Q247 846 261 846Q272 846 292 830T313 803ZM144 803Q144 751 129 652T94 553Q83 553 72 565T60 585T69 677T78 827Q78 846 90 846T123
830T144 803Z" />
<glyph unicode="#" horiz-adv-x="656" d="M146 147Q97 140 87 140T66 157T54 189Q54 214 168 233Q210 402 222 458Q159 447 145 447T120 464T109 496Q109 524 240 543Q260 646 260 680T263 721T281 728T321 704T347 651T333 555Q422 563 466 565Q482 650 482 682T485
721T503 728T543 704T569 653T558 569Q576 570 601 570Q664 570 664 541Q664 516 543 500Q522 410 483 262Q509 263 546 263T596 256T609 234T576 210T463 190L447 129Q411 -8 383 -8Q370 -8 361 9T351 47Q348 61 377 179Q340 174 306 170Q255 164 232 160Q195
20 178 -1Q160 -19 141 12Q129 31 129 57Q127 63 146 147ZM451 488Q368 478 315 471Q302 416 256 245Q321 252 397 257Q434 406 451 488Z" />
<glyph unicode="$" horiz-adv-x="534" d="M441 678Q470 678 488 650T506 593Q506 577 492 577Q486 577 471 581T442 586T398 582Q358 454 332 362Q402 312 442 269T482 179Q483 107 405 59T228 6Q201 -71 183 -71Q173 -71 167 -62Q156 -44 169 10Q107 23 65 68T23
150T44 187Q55 187 76 165T126 120T189 93Q197 125 252 314Q186 360 150 395T114 462T122 522T143 563Q206 626 353 665Q373 727 388 753T422 780T442 744Q442 720 428 678H441ZM316 105T354 127T393 183T307 277Q277 170 256 97Q316 105 354 127ZM198 480Q198
456 276 401Q284 429 322 563Q269 545 234 522T198 480Z" />
<glyph unicode="%" horiz-adv-x="890" d="M697 403Q745 403 777 353T810 240Q810 154 749 82T618 10Q576 10 545 53T513 150Q513 243 571 323T697 403ZM633 89Q662 89 697 134T732 226T720 299T691 325Q662 325 627 270T592 157Q592 129 603 109T633 89ZM578 704T628
732T690 760T718 733T732 684T697 613T589 464T407 211T270 22T230 -14T209 3T199 31T219 74T280 166T364 286Q446 402 608 633Q512 576 422 583Q411 583 387 589Q394 558 394 534Q394 448 333 376T202 303Q159 303 128 346T96 443Q96 536 154 616T281 696Q304
696 325 684Q367 658 407 655T513 678ZM216 382Q245 382 280 427T316 519T304 592T275 618Q246 618 211 563T176 450Q176 423 187 403T216 382Z" />
<glyph unicode="&amp;" horiz-adv-x="704" d="M569 91Q618 91 636 86T654 67Q654 20 558 20T367 107Q207 9 130 9Q91 9 53 46T15 125T191 310Q196 315 199 317T206 323T215 330Q179 418 179 493T234 625T373 681Q437 681 464 643T492 557Q492 468 310 309Q335
253 371 208Q414 237 479 284Q608 376 620 376Q651 376 651 343Q651 324 585 266T429 147Q496 91 569 91ZM316 605T292 570T267 487T282 386Q403 493 403 549Q403 573 391 589T353 605Q316 605 292 570ZM104 111Q104 88 130 88Q180 88 310 168Q280 204 249 258Q139
166 122 144T104 111Z" />
<glyph unicode="&apos;" horiz-adv-x="293" d="M233 803Q233 757 213 653T174 553Q164 553 152 566T140 586T151 678T163 827Q163 846 175 846T210 830T233 803Z" />
<glyph unicode="(" horiz-adv-x="485" d="M226 505T198 426T169 274T189 151T240 71T307 17T374 -22Q445 -56 445 -77T416 -99Q368 -99 312 -75T203 -6T115 111T80 279T117 472T208 641T322 766T430 848T499 875T535 861T551 832T523 793T452 739T360 661T268 559Z" />
<glyph unicode=")" horiz-adv-x="504" d="M84 -44T47 -65T-11 -87T-32 -70Q-32 -52 62 30Q155 110 238 232Q279 292 306 372T333 524T317 641T277 711T229 754T189 787T172 818Q172 861 228 861Q295 861 360 775T426 571Q426 475 399 383T328 221T234 92T133 -6Z" />
<glyph unicode="*" horiz-adv-x="357" d="M331 625T346 616T361 602T354 590T337 584T302 600T253 636Q249 604 239 567T220 529T205 536T197 550T201 571T212 607T221 638Q205 623 170 603T126 583T109 590T101 606Q101 611 119 619T166 640T213 664Q184 675
147 704T109 746T119 758Q167 758 176 739Q180 731 197 712T227 687V778Q227 793 240 793Q250 793 264 780T279 759T261 686Q277 696 298 713T332 741T352 752T370 744T381 726Q381 720 343 699T271 663Q284 652 307 639Z" />
<glyph unicode="+" horiz-adv-x="600" d="M606 362Q606 318 354 293Q317 114 310 92T292 70Q278 70 262 89T246 124T249 157T258 211T271 286Q185 280 117 280Q93 280 74 300T55 341T83 362Q231 362 282 366Q291 441 300 547Q301 577 320 577T367 549T396 501T372
372Q514 384 537 384Q606 384 606 362Z" />
<glyph unicode="," horiz-adv-x="228" d="M27 -176Q7 -176 7 -162Q7 -151 28 -126Q91 -51 91 -1Q91 15 79 25T53 45T40 67T57 101T93 122Q125 122 149 93T174 26Q174 -37 120 -106T27 -176Z" />
<glyph unicode="-" horiz-adv-x="459" d="M422 312T390 302T233 267T97 242T69 259T53 290Q53 312 166 332T362 353Q422 353 422 328Q422 312 390 302Z" />
<glyph unicode="." horiz-adv-x="237" d="M120 -6T88 26T56 80T73 123T109 145T152 96T177 22Q177 14 166 4T145 -6Q120 -6 88 26Z" />
<glyph unicode="/" horiz-adv-x="354" d="M140 69T107 -4T62 -77T33 -56T15 -20Q15 35 331 767Q332 770 334 774T337 781T339 787T342 791T346 794Q349 796 358 796T389 766T412 714T387 632T312 469T201 217Z" />
<glyph unicode="0" horiz-adv-x="500" d="M335 645Q314 645 282 604T219 500T167 359T145 212Q145 97 206 97Q235 97 276 161T349 319T381 488Q381 645 335 645ZM52 201Q52 322 96 446T208 648T339 727T436 668T471 502T433 284T330 96T205 18T98 74T52 201Z" />
<glyph unicode="1" horiz-adv-x="314" d="M142 41T133 24T111 7T84 27T68 68T89 172T138 396T175 695Q178 726 198 726Q220 726 245 698T271 651Q271 544 220 343Q209 303 195 244T172 150T153 78Z" />
<glyph unicode="2" horiz-adv-x="581" d="M309 127T367 135T453 143T495 139T510 120Q510 92 360 57T139 21Q108 21 75 48T41 106Q41 130 137 202Q227 268 314 356Q355 398 382 448T410 541T391 608T339 632T277 612T230 573T207 553Q190 553 167 568T144 598Q144
635 205 680T337 725T453 676T500 553Q500 337 130 100Q154 103 231 115Z" />
<glyph unicode="3" horiz-adv-x="571" d="M419 357T473 324T527 237T464 129T310 46T127 16T34 50Q34 59 93 73T224 104T354 157T414 242Q414 268 378 284T298 308Q182 325 182 348Q182 356 185 360Q193 374 236 399T323 448T405 511T442 590Q442 637 391 637Q350
637 287 605T216 572T184 593T161 626Q161 656 242 688T387 720T493 677T537 579T474 466T328 369Q419 357 473 324Z" />
<glyph unicode="4" horiz-adv-x="551" d="M441 532Q457 532 483 509T509 465Q509 375 451 182T360 -12Q349 -12 339 2T328 33T337 81T362 163T390 258Q295 215 209 215Q151 215 112 249T72 345Q72 389 105 456T182 581T267 681T325 724T357 712T373 686T320 609T214
470T161 349Q161 294 217 294Q265 294 335 320T408 347Q420 428 420 500Q420 532 441 532Z" />
<glyph unicode="5" horiz-adv-x="537" d="M590 685Q590 663 418 636Q342 624 323 620T277 567T250 497T271 452T322 406T384 359Q456 302 456 248Q456 164 376 92T208 20Q139 20 84 67T29 160Q29 189 45 189Q51 189 74 166Q142 98 192 98T302 145T362 239Q362
282 288 333Q258 354 228 376T176 430T154 501T200 616T276 698Q338 716 444 716Q590 716 590 685Z" />
<glyph unicode="6" horiz-adv-x="556" d="M491 257Q491 173 394 97T191 20Q128 20 88 62T47 177T94 351T203 531T320 665T397 720T438 710T458 689T424 642Q289 499 233 418Q344 408 417 360T491 257ZM200 101Q266 101 329 148T393 249Q393 287 340 319T197 362Q136
255 136 169Q136 135 153 118T200 101Z" />
<glyph unicode="7" horiz-adv-x="461" d="M461 692T473 664T486 617T477 577T449 523T414 463T372 396T326 320T253 187T177 53T139 13T114 31T102 68Q102 101 176 226T324 473T399 616Q399 634 366 634T259 623T165 612T122 639T99 685Q99 695 181 707T343 719T444
705Q461 692 473 664Z" />
<glyph unicode="8" horiz-adv-x="602" d="M522 729T562 697T602 612T550 500T405 367Q498 279 498 217Q498 168 455 122T350 49T238 22T140 58T91 141T140 243T276 371Q131 483 106 520Q92 540 92 557T97 592T112 610Q121 610 137 594T166 564T210 526T280 471T340
423Q399 470 429 496T486 555T514 610Q514 648 464 648T348 624T269 599T234 614T212 643Q212 673 289 701T444 729ZM408 230Q408 258 342 317Q288 274 259 250T205 195T180 147T197 113T236 98Q291 98 349 138T408 230Z" />
<glyph unicode="9" horiz-adv-x="488" d="M470 509Q470 489 445 423T404 310T370 178T340 49T315 5Q281 5 281 85T335 340Q262 284 207 284T111 327T69 426T108 553T209 675T328 726T414 689T444 612T437 551Q470 545 470 509ZM358 524L367 591Q367 613 357 627T327
642Q274 642 211 558T148 415Q148 390 165 375T201 360T232 363T256 372T277 385T298 403T317 422T335 444T352 465Q371 491 381 506Q358 509 358 524Z" />
<glyph unicode=":" horiz-adv-x="246" d="M179 336T147 377T115 441T129 488T158 512Q183 512 206 455T230 376Q230 336 202 336Q179 336 147 377ZM102 -7T71 33T39 97T53 144T82 168Q106 168 129 112T153 22Q153 11 145 2T125 -7Q102 -7 71 33Z" />
<glyph unicode=";" horiz-adv-x="306" d="M24 -194Q4 -194 4 -180Q4 -169 25 -144Q88 -69 88 -19Q88 -3 75 7T50 27T37 49T54 83T90 104Q122 104 146 75T171 8Q171 -55 117 -124T24 -194ZM190 336T159 377T127 441T141 488T170 512Q194 512 218 455T242 376T234
345T213 336Q190 336 159 377Z" />
<glyph unicode="&lt;" horiz-adv-x="539" d="M491 542Q512 542 525 526T539 499T534 484Q527 477 469 455T299 379T188 304Q188 287 260 248T404 171T477 118Q477 97 441 97T318 132T156 216T81 292Q81 308 92 332T115 367Q166 410 303 476T491 542Z" />
<glyph unicode="=" horiz-adv-x="631" d="M570 276Q570 239 337 208Q169 187 95 187Q82 188 70 207T57 240Q57 257 247 279T503 301T570 276ZM597 458Q597 441 554 431T346 402T128 383Q115 383 102 402T89 436Q90 457 244 473T498 489T597 458Z" />
<glyph unicode="&gt;" horiz-adv-x="561" d="M506 321Q506 283 349 197Q337 190 330 186Q171 96 116 96Q86 96 86 116T166 184T327 275T408 330Q408 351 327 397T194 458Q175 464 154 489T132 527Q132 543 155 543Q223 542 319 490T474 380Q506 348 506 321Z" />
<glyph unicode="?" horiz-adv-x="524" d="M198 -3T167 28T135 81T152 122T186 143T227 95T251 22Q251 15 241 6T222 -3Q198 -3 167 28ZM258 634L260 608Q260 596 248 591T226 585T197 608T178 647Q178 702 227 745T341 788T451 747T497 636Q497 595 470 550T408
472Q308 373 284 314T250 247T234 239Q209 239 209 303Q209 344 240 391T309 473T378 552T410 629T389 681T336 701T282 682T258 634Z" />
<glyph unicode="@" horiz-adv-x="965" d="M607 730Q747 730 830 641T913 413Q913 348 887 284T820 174T730 99T644 70T585 90T555 143Q466 49 404 49Q359 49 315 87T271 168T297 271T363 388T455 483T552 522T634 479T671 400T650 334Q665 317 665 304T649 250T632
190T640 161T664 149T708 169T762 223T807 306T826 407Q826 515 772 582T614 650T421 601T269 475T171 306T134 123T188 -28T341 -87Q455 -87 557 -51Q591 -39 600 -39Q613 -39 613 -53Q613 -94 520 -129T342 -165Q214 -165 129 -80T43 127Q43 225 84 330T196 524T376
672T607 730ZM559 446Q522 446 472 393T386 272T350 166Q350 148 365 136T398 123Q443 123 505 187T588 339Q591 353 605 354V361Q602 397 590 421T559 446Z" />
<glyph unicode="A" horiz-adv-x="608" d="M564 363Q564 344 476 319Q484 215 484 142Q484 16 452 16Q435 16 425 37T409 110Q402 206 394 298Q349 286 312 277T200 246Q112 16 96 16T62 35T43 77Q43 87 100 219H93Q73 219 58 232T42 264T141 316Q157 352 167 381Q190
438 231 537T283 663T321 710T375 730Q406 730 430 631T470 386Q498 389 519 389Q564 389 564 363ZM237 342Q308 361 387 374Q369 545 352 631Q307 528 237 342Z" />
<glyph unicode="B" horiz-adv-x="637" d="M575 254Q575 195 514 140T356 51T158 17Q99 17 53 50T6 111T23 140Q27 140 62 119T137 96Q123 103 111 122T98 158T122 253Q196 488 198 614H190Q172 614 153 636T134 673Q134 690 176 702T279 715Q419 715 495 677T571
567Q571 507 521 458T373 379L382 378Q466 373 520 337T575 254ZM481 595T448 613T367 632T251 620Q279 590 279 563T244 397Q268 412 319 431T399 466T442 492T468 523T481 562Q481 595 448 613ZM488 258Q488 288 419 308T280 329Q253 329 233 357Q172 116 153
96Q224 98 302 121T434 183T488 258Z" />
<glyph unicode="C" horiz-adv-x="599" d="M496 718T523 685T551 631T544 609T515 616T477 624Q438 624 383 584T278 485T193 351T158 220T186 140T261 114T356 127T436 158Q516 201 524 201Q541 201 541 179T495 119T381 51T259 21Q189 21 127 81T65 215Q65 309
126 427T284 632T470 718Q496 718 523 685Z" />
<glyph unicode="D" horiz-adv-x="645" d="M151 721Q245 721 351 672T535 537T612 357Q612 296 528 214T332 73T148 14Q129 14 105 46T80 112T138 354T201 628Q169 641 150 662T131 702T151 721ZM520 368Q520 430 446 502T274 607Q279 589 279 565T262 473T198
249Q179 183 167 104Q236 113 321 164T463 275T520 368Z" />
<glyph unicode="E" horiz-adv-x="585" d="M208 333Q154 162 154 126Q154 114 161 107T181 99Q296 99 435 136Q480 148 487 148Q502 148 502 127Q502 91 392 53T178 15Q132 15 98 42T63 110T92 250T152 461T182 650Q182 661 186 673Q203 710 404 710T605 681Q605
661 562 654Q526 647 467 642T383 634T267 615V612Q267 544 230 407Q236 406 270 406T363 411T450 416T480 402Q480 367 398 350T208 333Z" />
<glyph unicode="F" horiz-adv-x="523" d="M197 313H195Q193 303 176 233T153 142T145 107T137 78T130 52T123 33Q117 16 111 16Q98 16 77 44T56 91T113 341T173 650Q173 665 180 674Q190 695 239 704T384 713T534 703T589 675Q589 663 572 658T542 651T508 646T469
642T423 637T370 632T305 624T252 618Q253 615 253 609Q253 562 214 393Q276 390 347 396T435 402Q473 402 473 386Q473 355 387 334T197 313Z" />
<glyph unicode="G" horiz-adv-x="611" d="M461 624Q398 624 322 555T191 383T137 190Q137 154 160 129T214 103Q262 103 326 155T446 291Q390 276 363 276T317 290T298 318Q298 334 341 343T449 353Q485 353 507 323T530 252T480 61T405 -89T379 -60Q379 -32 393
16T424 114T450 197Q401 114 339 66T219 17T103 71T46 191Q46 292 110 416T271 628T453 717Q481 717 508 684T535 630T524 609Q521 609 502 616T461 624Z" />
<glyph unicode="H" horiz-adv-x="670" d="M120 17Q108 17 87 43T66 94T110 290Q97 295 88 307T78 336Q78 349 130 365Q197 627 197 690Q197 707 201 713T219 720T255 689T278 620T229 388Q361 415 488 423Q539 631 539 690Q539 720 559 720Q576 720 599 689T622
625T577 421Q623 414 623 394T561 360Q529 242 518 197T499 124T484 70Q470 17 459 17Q445 17 427 40T408 89T468 346Q322 326 205 300Q191 248 179 200T159 124T144 70Q130 17 120 17Z" />
<glyph unicode="I" horiz-adv-x="310" d="M188 705T192 711T211 718T249 687T273 621T201 292Q194 265 182 215T163 137T148 78Q131 19 119 19T88 43T68 87T127 366T188 688Q188 705 192 711Z" />
<glyph unicode="J" horiz-adv-x="468" d="M26 194Q37 194 86 144Q105 126 132 111T185 95Q218 95 245 164T322 412T401 640Q357 633 278 614T182 595Q145 595 145 620Q145 654 269 689T452 724Q470 724 483 716T497 693T483 636Q421 455 402 390Q337 153 303 83T202
13T71 69T8 165Q8 194 26 194Z" />
<glyph unicode="K" horiz-adv-x="591" d="M105 20Q91 20 73 43T54 92T119 370T184 686Q184 704 188 711T206 718T241 687T261 616T209 379Q300 503 401 607T529 712Q549 712 566 699T584 674T537 618T409 496T272 340Q272 299 294 251Q329 171 438 118Q485 95
511 79T538 46Q538 20 499 20T417 36T331 83T253 162T204 271Q173 216 146 126Q113 20 106 20H105Z" />
<glyph unicode="L" horiz-adv-x="546" d="M281 647Q281 577 195 293Q152 155 152 128T178 101Q291 101 426 138Q469 150 477 150T489 147T492 133Q492 91 390 54T181 17Q133 17 98 45T62 111T130 388T199 695Q199 711 203 718T222 725T259 700T281 647Z" />
<glyph unicode="M" horiz-adv-x="789" d="M625 615T666 661T725 707T763 687T783 649T779 608T766 548T749 483T724 397T698 305T677 221T658 140T642 78Q627 20 614 20T587 44T574 108T608 294T683 548Q499 318 457 273T387 228T335 259Q299 311 238 505Q221
400 201 326T174 227T163 186T152 149T142 113T132 83T124 56T116 37Q108 20 104 20Q92 20 74 46T56 96T120 372T185 688Q185 705 189 711T206 718T250 691T283 643Q287 607 321 516T399 330Q455 396 540 505Z" />
<glyph unicode="N" horiz-adv-x="677" d="M645 659Q645 577 620 426T552 146T471 17Q458 17 442 30T416 62Q386 132 239 506Q209 390 173 244T124 57T103 17Q90 17 72 39T53 86T118 367T185 689Q185 721 202 721Q213 721 232 703T261 662Q422 244 465 150Q530
322 552 561Q562 671 562 680Q564 723 582 723T623 700T645 659Z" />
<glyph unicode="O" horiz-adv-x="613" d="M500 541T471 589T401 637T301 575T193 413T145 220Q145 165 169 131T225 96Q275 96 340 155T453 300T500 464ZM54 214Q54 305 87 399T171 563T283 677T396 722Q480 722 536 646T592 473T539 272T398 92T219 17Q153 17
104 82T54 214Z" />
<glyph unicode="P" horiz-adv-x="543" d="M559 553Q559 445 456 370T182 262Q109 15 95 15T62 37T43 82T72 202Q162 501 166 619Q142 641 142 659Q142 684 210 707T340 730Q436 730 497 681T559 553ZM471 547Q471 591 438 619T357 648T243 618Q253 596 253 577Q253
521 204 340Q324 372 397 428T471 547Z" />
<glyph unicode="Q" horiz-adv-x="641" d="M480 719T543 643T607 472T557 272T429 98Q443 59 464 7T495 -73T505 -116Q505 -139 480 -139Q435 -139 362 52Q301 20 237 20T115 80T57 214Q57 307 90 401T172 563T282 675T396 719Q480 719 543 643ZM449 251T482 324T516
469T480 588T403 636Q387 636 368 628Q345 596 345 531Q345 368 398 191Q449 251 482 324ZM145 166T177 131T248 96T334 131Q263 353 263 477Q263 516 270 545Q216 479 181 391T145 221Q145 166 177 131Z" />
<glyph unicode="R" horiz-adv-x="584" d="M100 16Q85 16 66 38T47 82T102 299T165 594Q152 602 142 619T132 649Q132 672 200 696T350 721T493 682T554 570Q554 521 527 479T460 409T381 361T315 327T287 307Q287 285 321 250T370 202T407 168T450 129T483 101T509
78Q534 55 534 41Q534 17 501 17Q441 17 330 121T194 299Q147 143 140 119T124 68Q108 16 100 16ZM251 567Q251 502 209 352Q226 365 274 390T360 437T431 495T463 570Q463 632 355 632Q306 632 241 607Q251 585 251 567Z" />
<glyph unicode="S" horiz-adv-x="531" d="M468 132T394 77T225 21T67 70T5 164Q5 194 23 194Q39 194 86 146Q104 129 134 114T199 99Q269 99 323 135T378 213Q378 240 342 282T263 361T183 442T147 510T157 563T179 604Q218 647 300 683T439 719Q468 719 488 700T508
660Q508 650 487 644T424 629T348 606Q233 562 233 521Q233 499 350 398Q395 359 431 308T468 214Q468 132 394 77Z" />
<glyph unicode="T" horiz-adv-x="535" d="M284 632L113 624Q97 624 80 645T63 686Q63 704 120 709T373 714Q474 714 539 692T605 643Q605 624 572 624T480 628T367 633Q370 623 370 611Q370 574 292 267Q284 235 268 167T244 72Q230 19 219 19Q204 19 186 41T167
87T221 323T284 632Z" />
<glyph unicode="U" horiz-adv-x="598" d="M206 719T230 693T254 631T214 437T173 223T194 131T248 96T321 134T395 233T453 383T477 562Q477 604 473 646T468 698Q468 719 486 719Q509 719 539 685T569 596Q569 442 524 307T403 92T241 11Q178 11 132 72T85 212T127
460T169 689Q169 706 173 712T191 719Z" />
<glyph unicode="V" horiz-adv-x="532" d="M545 718Q561 718 577 707T593 679T575 626T511 511T434 367T374 242T329 144T296 74Q264 13 243 13Q231 13 214 32T187 77Q160 144 115 387T69 687Q69 718 86 718Q107 718 129 697T164 642Q170 624 193 443T247 147Q311
328 412 523T545 718Z" />
<glyph unicode="W" horiz-adv-x="782" d="M498 719Q615 719 675 626T735 392T666 136T505 20Q441 20 411 92T372 297Q330 238 276 163Q172 19 130 19Q114 19 93 45T72 110T99 357T126 681Q126 718 148 718T199 692T229 645T196 433T154 135Q215 238 291 325T401
413Q435 413 448 263Q453 207 467 160T507 113Q563 113 604 203T646 404Q646 526 592 592Q564 627 531 627T474 650T450 690Q450 719 498 719Z" />
<glyph unicode="X" horiz-adv-x="624" d="M574 715Q586 715 606 694T626 663T620 646T599 630T575 610Q538 574 358 342Q385 298 436 222T509 107T532 52T524 28T506 19Q481 19 424 90T301 269Q249 200 234 180T201 138T174 103T150 75T127 51T108 34Q90 20 75
20T42 33T25 54T26 64T29 70T33 76T49 92Q130 180 257 346Q122 589 122 692Q122 719 136 719Q165 719 193 705T222 671Q222 579 312 420Q453 615 499 665T574 715Z" />
<glyph unicode="Y" horiz-adv-x="575" d="M327 373Q345 373 392 458T489 630T560 716T594 701T607 665T569 581T467 415T339 190T251 39T212 9Q190 9 190 45Q190 73 218 130Q227 147 232 158T248 191T265 223T283 259T302 295Q243 310 194 369T118 502T92 646T132
716Q148 716 157 685T181 596T218 490T273 407T327 373Z" />
<glyph unicode="Z" horiz-adv-x="620" d="M506 667T534 633T562 567T521 482T420 376T300 273T199 184T157 133T164 114T183 107Q236 107 352 123T503 140T537 116Q537 84 412 53T160 21Q122 21 91 55T59 123T102 207T207 310T330 413Q479 536 479 579Q479 598
434 610T337 623T242 616T188 608Q166 608 145 631T124 673Q122 691 190 704Q225 710 271 710Q377 710 467 680Q506 667 534 633Z" />
<glyph unicode="[" horiz-adv-x="453" d="M426 802Q550 802 550 768Q550 755 540 750T522 743T500 738T472 735T437 730Q384 723 354 716Q355 713 355 708Q355 630 235 263Q171 63 171 41T196 18T277 24T343 31Q362 31 362 13Q362 -13 299 -39T190 -65T110 -41T75
18T123 208T220 528T268 751Q268 757 269 759V760Q270 785 309 793T426 802Z" />
<glyph unicode="\" horiz-adv-x="600" d="M521 -34T504 -55T475 -77T430 -4T335 217T225 468T150 631T124 713T146 766T181 796Q192 796 198 784Q202 776 205 767Q521 35 521 -20Q521 -34 504 -55Z" />
<glyph unicode="]" horiz-adv-x="450" d="M313 673L261 674Q186 674 172 675Q128 679 128 697Q128 723 179 738T295 754Q410 754 410 711V706Q410 552 279 3Q268 -39 242 -57T164 -75T53 -51T-5 3Q-5 21 15 21T81 15T153 9T184 31Q312 556 312 662Q312 669 313 673Z" />
<glyph unicode="^" horiz-adv-x="422" d="M376 571Q376 553 360 553Q323 553 228 749Q185 705 145 625Q117 569 109 563T90 557T67 567T55 588Q55 639 117 742T213 845Q228 845 248 838T277 823T290 800T307 752T347 649T376 571Z" />
<glyph unicode="_" horiz-adv-x="608" d="M553 26Q553 9 499 2Q403 -9 327 -9T178 -15T88 -21T57 -4T44 31T123 58T323 67T509 55Q553 47 553 26Z" />
<glyph unicode="`" horiz-adv-x="0" d="M-104 775T-105 779T-107 795T-92 825T-64 844T-42 838T-14 810T41 751T81 705T86 686T78 667T60 658T41 664T12 686T-19 709T-43 726T-62 739T-77 749T-90 760T-99 769Z" />
<glyph unicode="a" horiz-adv-x="469" d="M342 511T380 466T418 384T393 309Q405 294 405 283Q405 255 393 187T378 98T373 65T368 40Q364 15 350 15Q332 15 321 46T307 128Q218 15 142 15Q96 15 52 54T7 136Q7 196 51 284T165 442T297 511Q342 511 380 466ZM343
335Q343 428 306 428Q267 428 215 373T127 247T91 136Q91 119 105 109T138 98Q185 98 244 161T326 316Q329 331 343 334V335Z" />
<glyph unicode="b" horiz-adv-x="525" d="M74 15Q60 15 41 36T22 77T53 207T116 474T148 761Q148 791 170 791Q186 791 209 762T232 704Q232 581 178 353Q297 514 394 514Q441 514 473 468T506 359T470 213T371 73T241 14T107 83L106 82Q84 15 74 15ZM233 92Q298
92 360 180T423 367Q423 426 387 426Q329 426 258 345T134 152Q181 92 233 92Z" />
<glyph unicode="c" horiz-adv-x="445" d="M312 511Q353 511 384 474T415 409Q415 401 410 396T396 390T362 408T319 426Q265 426 193 331T121 165Q121 134 140 116T203 98T283 108T340 129T371 140Q390 140 390 121Q390 92 321 54T193 15T83 60T32 168T74 313T182
453T312 511Z" />
<glyph unicode="d" horiz-adv-x="499" d="M459 791Q475 791 498 762T522 706T497 559T439 307Q367 15 344 15Q330 15 314 32T297 63T304 115Q206 15 133 15Q89 15 54 55T18 138Q18 200 51 285T148 441T282 511T381 426Q432 638 437 761Q437 791 459 791ZM349 300Q349
354 331 391T286 428Q243 428 198 375T127 254T100 135Q100 117 113 106T144 95Q183 95 249 151T346 283L349 295V300Z" />
<glyph unicode="e" horiz-adv-x="450" d="M430 292T373 259T243 225T111 241Q97 197 97 163T118 109T189 90T291 107T349 125Q375 125 375 105Q375 78 314 47T195 15Q117 15 68 61T19 179T57 327T155 458T274 511T381 455T430 346ZM279 432Q242 432 202 394T134
298Q174 289 225 289T314 305T352 349T328 404T279 432Z" />
<glyph unicode="f" horiz-adv-x="376" d="M103 13Q90 13 75 32T60 63T70 110Q120 290 138 367Q95 357 79 357T47 371T31 402T76 432Q134 446 156 450Q166 498 171 524Q195 662 236 723T347 784Q397 784 429 745T461 652T433 598Q409 598 394 652Q389 672 377 689T348
706T317 691T292 646Q263 565 252 498L244 463Q281 468 317 468T370 460T387 440Q387 421 354 411T225 385Q154 97 128 42Q114 13 103 13Z" />
<glyph unicode="g" horiz-adv-x="475" d="M427 285Q427 245 392 194Q365 133 334 19T282 -145Q240 -247 153 -247Q82 -247 34 -209T-15 -132Q-15 -116 -6 -100T14 -84T38 -99T62 -131T97 -164T143 -179T176 -173T197 -152T214 -123T229 -82T243 -36T257 17T272
73Q194 15 145 15T60 54T24 146T63 286T170 442T301 511Q342 511 370 480Q416 429 416 335Q416 323 415 318Q427 301 427 285ZM105 136Q105 119 116 109T144 98Q194 98 262 157T358 296Q354 309 351 336T345 379T332 411T306 428Q267 428 218 372T137 247T105 136Z"
/>
<glyph unicode="h" horiz-adv-x="536" d="M173 791Q192 791 213 761T235 703Q235 638 203 482T118 169Q218 350 285 430T401 511Q427 511 461 466T496 376T471 241Q409 15 354 15Q332 15 332 45T356 146Q409 301 409 355Q409 373 400 385T378 397T346 383T300
334Q266 289 230 233T186 166T160 124T132 80T110 48Q87 15 75 15T43 37T23 75T34 134Q84 326 97 397Q149 657 149 752Q149 791 173 791Z" />
<glyph unicode="i" horiz-adv-x="238" d="M270 601Q270 591 261 583T242 575Q218 575 189 604T159 653T175 691T207 709T247 669T270 601ZM154 511Q173 511 190 488T207 443T178 312T105 66Q88 16 62 16Q48 16 38 27T28 53T35 99T57 183T80 269T98 343T112 410T125
462Q139 511 154 511Z" />
<glyph unicode="j" horiz-adv-x="254" d="M160 511Q177 511 195 490T213 443Q213 420 182 304T127 94T80 -88Q37 -245 -76 -245Q-126 -245 -173 -203T-221 -131Q-221 -118 -211 -101T-191 -83Q-180 -83 -168 -97T-149 -121Q-106 -176 -72 -176Q-29 -176 6 -52Q30
33 68 203T131 462Q146 511 160 511ZM283 601Q283 591 274 583T256 575Q232 575 202 604T172 653T188 691T221 709T260 669T283 601Z" />
<glyph unicode="k" horiz-adv-x="469" d="M473 457Q473 448 384 363Q351 331 324 288T296 208T317 142T364 96T411 65T433 40Q433 15 394 15T300 59T232 159Q227 169 224 178Q156 86 126 51T80 15T47 38T29 77T61 206T126 479T159 763Q159 779 163 785T183 791T220
762T242 704Q242 615 206 455T120 151Q233 312 315 411T417 511T455 492T473 457Z" />
<glyph unicode="l" horiz-adv-x="245" d="M80 15Q66 15 48 37T29 71T58 195T116 470T145 765Q145 779 149 785T166 791T203 763T228 707Q228 519 150 219Q100 15 80 15Z" />
<glyph unicode="m" horiz-adv-x="796" d="M678 511Q708 511 731 470T755 376T737 239T687 85T626 15Q605 15 605 42T639 177T674 348T654 412Q629 412 597 368T527 262T487 196T480 183T470 166T442 112T402 42T373 16T345 32T330 62T348 120Q400 250 400 362Q400
383 391 397T371 412T348 403T318 369T286 322T244 254T201 185T167 133T138 87T114 52Q87 15 75 15T42 37T22 71T26 100T34 133T48 180T70 254T89 371T99 480T116 515Q138 515 159 492T181 446Q181 358 115 156Q227 366 256 405T306 468Q345 511 385 511Q409 511
442 470T476 386T464 282Q582 511 678 511Z" />
<glyph unicode="n" horiz-adv-x="533" d="M225 352T285 431T384 511T457 470T492 383Q492 311 459 207Q399 15 351 15Q329 15 329 45Q329 66 350 130T390 257T409 351T400 398T381 413T361 407T339 387T315 360T288 321T260 279T228 228T196 178T167 132T139 87T115
52Q90 15 76 15T42 37T23 77Q23 82 30 104Q49 162 72 247T97 442Q100 515 118 515Q140 515 162 492T184 442T168 336T129 189Q225 352 285 431Z" />
<glyph unicode="o" horiz-adv-x="453" d="M221 431T172 344T122 179T160 83Q232 97 282 181T333 341Q333 375 322 405T290 450Q221 431 172 344ZM337 511T377 461T417 338T382 190T286 65T155 15Q104 15 70 62T36 181T70 332T161 460T277 511Z" />
<glyph unicode="p" horiz-adv-x="478" d="M358 514Q401 514 432 459T464 346T430 229T346 124T236 48T124 17Q104 17 86 22Q82 5 72 -39T55 -112T39 -174Q21 -242 7 -242T-22 -221T-38 -182T-6 -36Q90 353 90 488Q90 518 112 518Q130 518 155 492T181 433Q181
417 177 398Q266 514 358 514ZM114 95Q167 95 228 131T333 226T377 345Q377 428 338 428T233 361T127 187L104 95H114Z" />
<glyph unicode="q" horiz-adv-x="474" d="M396 -78Q406 -78 415 -86T424 -105Q424 -121 385 -144T310 -193T255 -231T223 -245T198 -224T185 -190T186 -171T192 -150T201 -124T214 -86T231 -41T252 18T278 87Q244 54 204 35T129 15T55 57T16 142T43 249T112 371T208
470T309 511T392 474T429 412T412 386Q400 386 374 408T327 431Q283 431 227 375T132 248T94 136Q94 120 105 109T132 98Q187 98 257 160T352 319Q356 334 372 334T409 319T431 289T414 227T356 70T283 -127Q356 -78 396 -78Z" />
<glyph unicode="r" horiz-adv-x="331" d="M91 389L88 464Q88 511 110 511Q129 511 146 487T164 429T162 378Q249 510 327 510Q376 510 376 486Q376 474 365 464T330 441Q277 418 241 371T181 263T145 162T124 98T108 53Q92 13 71 13Q54 13 44 32T33 70T50 144Q91
270 91 389Z" />
<glyph unicode="s" horiz-adv-x="426" d="M411 408Q411 391 395 391Q384 391 361 408T314 426T239 398T187 339Q187 316 279 260Q314 238 342 204T371 130T317 53T190 15T62 50T6 116Q6 129 12 136T29 144T57 131Q111 92 169 92T254 105T280 141T251 189T188 235T124
284T95 343Q95 396 178 453T317 511Q351 511 381 474T411 408Z" />
<glyph unicode="t" horiz-adv-x="387" d="M143 115Q143 96 165 96Q203 96 257 117T318 139Q336 139 336 120Q336 91 277 53T169 15T88 41T56 96T68 167T102 282T138 401Q91 390 75 390T44 406T28 438Q28 462 158 484Q176 567 176 631Q176 661 196 661Q213 661
238 640T263 591T246 496Q303 501 337 501Q397 501 397 475Q397 460 365 450T228 419Q207 340 175 239T143 115Z" />
<glyph unicode="u" horiz-adv-x="481" d="M389 499T393 505T410 511T443 485T463 435Q463 422 419 281T351 57Q339 15 317 15Q304 15 295 26T286 66T309 171Q267 103 218 59T129 15T52 53T16 131Q16 226 71 368T164 511Q182 511 195 495T209 457Q209 448 182 393T128
263T101 132Q101 116 111 106T135 95Q173 95 225 162T321 318T385 483Q389 499 393 505Z" />
<glyph unicode="v" horiz-adv-x="422" d="M376 511Q393 511 409 499T425 471Q425 444 353 284T250 69T196 13Q183 13 164 32T136 73Q109 136 78 276T47 481Q47 511 65 511Q87 511 110 493T142 446Q145 430 150 366Q164 208 198 123Q225 181 267 287T335 452T376 511Z" />
<glyph unicode="w" horiz-adv-x="673" d="M433 405L426 217Q426 139 433 104Q476 149 507 209T554 322T581 419T603 492T626 519Q645 519 660 504T675 468Q675 417 629 300Q590 192 527 103T429 13T377 52T357 201T360 393Q291 205 238 109T154 13Q140 13 125
26T100 60Q78 113 63 262T47 476Q47 517 72 517Q94 517 112 492T134 443T139 307T158 108Q199 179 240 286T308 454T357 515Q390 515 411 485T433 405Z" />
<glyph unicode="x" horiz-adv-x="427" d="M288 423T327 467T386 511T423 495T442 468T435 449T413 428T384 401T349 361T299 298T250 237Q256 228 268 207T289 172T311 137T334 102T351 74Q367 48 367 38T360 22T343 15Q298 15 199 176Q68 15 40 15Q24 15 7 31T-10
62Q-10 67 12 89Q109 186 157 247Q111 329 79 399T47 483T48 502Q50 511 70 511T119 499T148 470Q148 428 207 314Q288 423 327 467Z" />
<glyph unicode="y" horiz-adv-x="469" d="M438 511T456 488T475 435Q475 415 434 299T379 142T340 32T292 -102Q242 -245 142 -245Q85 -245 33 -211T-19 -139Q-19 -125 -7 -108T15 -91T44 -113Q102 -179 143 -179Q174 -179 199 -125T246 -2T271 74T277 92T284
112Q213 15 144 15Q102 15 67 54T31 146T57 289T118 445T175 511Q193 511 208 495T224 461T198 390Q117 224 117 132Q117 116 127 106T151 95Q187 95 237 159T329 311Q364 385 402 500Q406 511 422 511Z" />
<glyph unicode="z" horiz-adv-x="440" d="M403 409Q403 371 357 322T255 235T154 162T107 115Q107 98 133 98Q190 98 273 106T372 114Q411 114 411 91Q411 59 311 37T118 15Q75 15 39 47T3 107T53 179T164 266Q325 378 325 406Q325 425 223 425Q198 425 161 420T108
414T73 435T54 471Q54 490 98 500T218 511T344 491Q366 482 384 455T403 409Z" />
<glyph unicode="{" horiz-adv-x="421" d="M183 338H178Q183 320 183 295T156 199T129 77T157 4T232 -17T291 -23T304 -46T275 -79T210 -95Q139 -95 90 -45T41 67T74 208T108 335Q108 347 93 371Q65 394 65 421Q65 429 68 436T79 444T115 426T167 408T205 422T221
459T198 553T174 694T228 812T350 862T455 825T494 735Q494 711 479 685T447 659Q433 659 433 700T421 761T366 780T289 748T255 656T278 530T300 441Q300 401 268 370T183 338Z" />
<glyph unicode="|" horiz-adv-x="368" d="M108 -135T88 -113T67 -72T153 344T240 798Q240 814 244 821T264 828T303 799T327 737T246 363Q240 338 208 192Q137 -135 123 -135Z" />
<glyph unicode="}" horiz-adv-x="538" d="M457 356Q457 329 419 313Q367 284 357 142Q353 87 345 33T305 -56T219 -92T120 -63T77 -6T93 22T120 11Q154 -23 208 -23Q242 -23 258 17T277 109T290 224T325 320Q293 335 273 362T253 421T280 492T340 562T400 634T428
708T402 766T346 789T295 776T264 748T241 720T219 707T191 725T174 756Q174 790 230 826T347 862T462 814T518 718T490 625T426 548Q335 464 335 426Q335 381 391 374Q399 373 409 372Q457 367 457 356Z" />
<glyph unicode="~" horiz-adv-x="594" d="M239 430Q266 430 289 413T326 375T359 336T399 314Q419 317 436 333T462 366Q485 412 511 412T537 377Q537 329 495 281T402 232Q328 232 248 360Q220 348 198 327T166 287Q139 241 115 241Q80 241 80 273Q80 321 133
375T239 430Z" />
<glyph unicode="&#xa0;" horiz-adv-x="401" />
<glyph unicode="&#xa1;" horiz-adv-x="354" d="M197 729Q197 736 207 745T226 754Q250 754 281 723T313 671T296 629T262 608T221 656T197 729ZM82 3Q82 88 125 302T195 516Q211 516 225 500T239 465Q240 459 227 393T198 208T183 -33Q183 -59 167 -59Q148 -59
115 -35T82 3Z" />
<glyph unicode="&#xa2;" horiz-adv-x="482" d="M384 613T391 601T398 575T380 507Q410 491 431 462T452 412T436 391Q423 391 396 410T359 434Q343 376 313 264T272 111Q315 116 353 131T403 147Q422 147 422 128Q422 104 365 72T249 29Q218 -71 205 -71Q196 -71
187 -61T177 -41T190 29Q136 39 92 82T48 175Q48 277 138 394T320 520Q353 613 371 613Q384 613 391 601ZM137 177Q137 149 156 130T208 108Q245 275 290 424Q235 392 186 313T137 177Z" />
<glyph unicode="&#xa3;" horiz-adv-x="657" d="M569 510L574 549Q574 594 533 594Q505 594 480 555T415 399H423Q518 399 545 396T573 379Q573 340 393 327Q357 214 327 147Q386 86 429 86Q457 86 482 99T523 130Q563 173 581 173T610 160T621 128Q621 93 557
51T441 8Q367 8 289 80Q242 15 176 15Q139 15 93 62T46 153T77 226T157 256T261 212Q283 272 298 324Q191 324 191 350Q191 368 204 387T229 407Q268 407 321 402Q369 563 418 623T539 684Q585 684 616 647T647 562Q647 540 623 517T584 493T569 510ZM181 86Q202
86 230 140Q187 183 164 183Q126 183 126 148Q126 131 145 109T181 86Z" />
<glyph unicode="&#xa4;" horiz-adv-x="600" d="M538 484T519 465T486 433T462 410Q484 374 484 327Q484 239 422 177Q471 100 471 89T464 72T447 66Q417 66 363 136Q332 122 293 122T221 140Q154 66 136 66T101 82T85 106T93 124T124 156T163 195Q138 234 138
286Q138 357 186 415Q176 434 160 460Q128 510 128 520Q128 541 143 541Q170 541 197 531T230 505T248 466Q286 485 326 485T397 470Q458 541 487 541Q502 541 520 525T538 496ZM277 422T245 380T213 291T239 216T307 187T381 229T413 316T387 391T320 422Z" />
<glyph unicode="&#xa5;" horiz-adv-x="563" d="M366 374Q413 374 455 369T498 344Q498 315 308 300Q305 275 299 244Q359 247 401 247Q489 247 489 225Q489 193 282 166V164Q276 139 271 111T262 67T254 36Q248 10 240 10Q225 10 203 30T181 71T197 156Q111 148
65 148Q53 148 41 166T29 198Q29 222 214 237Q217 257 221 292Q133 283 90 283Q79 283 67 300T55 333Q55 357 206 368Q169 436 132 522T95 641T114 673Q136 673 158 657T193 613Q193 612 219 537T279 403Q287 413 327 464T388 540T441 602Q502 673 526 673Q541
673 556 661T572 642T568 626T554 604T534 578T508 547T480 513T448 477T416 442T384 406T355 374H366Z" />
<glyph unicode="&#xa6;" horiz-adv-x="369" d="M241 798Q241 814 245 821T264 828T303 799T328 736T294 567T243 430Q229 430 209 452T188 494T214 627T241 798ZM120 233Q120 263 142 263Q159 263 183 234T207 172T174 2T123 -135Q109 -135 89 -113T68 -72T94
62T120 233Z" />
<glyph unicode="&#xa7;" horiz-adv-x="464" d="M338 678Q305 678 276 653T247 603T265 555T309 504T362 448T406 380T424 298T380 209T271 145Q317 94 317 37T272 -63T149 -107Q93 -107 48 -70T2 -2Q2 16 13 38T35 60Q45 60 51 51T64 30Q99 -29 146 -29Q227 -29
227 44Q227 84 166 139Q140 162 114 186Q53 246 53 303T100 410T210 491Q161 549 161 595Q161 654 225 706T351 759Q389 759 418 722T447 636T419 586Q394 586 380 632T338 678ZM267 200T301 234T336 302T317 366T260 436Q141 376 141 304Q141 285 154 264T180
231T221 194Q267 200 301 234Z" />
<glyph unicode="&#xa8;" horiz-adv-x="0" d="M115 826T136 787T157 733T149 709T130 700Q108 700 81 726T54 772T69 808T99 826ZM-36 826T-15 787T6 733T-2 709T-20 700Q-43 700 -69 726T-96 772T-82 808T-52 826Z" />
<glyph unicode="&#xa9;" horiz-adv-x="708" d="M327 60Q209 60 144 130T79 309Q79 445 189 552T436 660Q553 660 623 588T693 404Q693 256 588 158T327 60ZM622 413Q622 497 575 551T458 606Q406 606 352 585T251 524T176 424T147 285T193 160T316 113Q458 113
540 191T622 413ZM452 543Q468 543 484 525T501 492T488 477Q483 477 473 480T454 484Q414 484 356 416T298 285Q298 267 311 256T342 244Q385 244 431 264T481 285Q495 285 495 268Q495 247 442 216T346 184T269 217T234 287Q234 363 306 453T452 543Z" />
<glyph unicode="&#xaa;" horiz-adv-x="474" d="M406 666Q406 654 399 635Q400 632 400 624T391 571T381 467T364 409Q350 409 338 431T322 484Q261 409 196 409Q157 409 125 441T93 507T108 584T148 670T212 741T294 771T371 734T406 666ZM162 513Q162 473 199
473T281 524T347 655Q344 674 330 689T296 704Q249 704 206 635T162 513Z" />
<glyph unicode="&#xab;" horiz-adv-x="657" d="M663 474Q682 474 698 461T715 437Q715 420 660 408Q559 387 485 361T411 316T534 249T658 183Q658 164 626 164Q567 164 447 220T326 316Q326 328 339 347T365 375Q405 404 512 439T663 474ZM352 497Q371 497 387
486T403 464Q403 448 368 438Q280 410 201 374T121 318Q121 301 183 271T307 213T370 172Q370 151 329 151T163 212T38 310Q38 324 50 345T73 374Q115 408 214 452T352 497Z" />
<glyph unicode="&#xac;" horiz-adv-x="496" d="M406 399L107 396Q69 396 39 419T8 463T26 483L303 479Q462 479 501 469Q525 462 539 434T554 370T520 263T442 135T369 79Q350 79 350 97Q350 106 379 156Q465 302 465 376Q465 399 406 399Z" />
<glyph unicode="&#xad;" horiz-adv-x="600" d="M422 312T390 302T233 267T97 242T69 259T53 290Q53 312 166 332T362 353Q422 353 422 328Q422 312 390 302Z" />
<glyph unicode="&#xae;" horiz-adv-x="767" d="M451 660Q568 660 638 588T708 404Q708 256 603 158T342 60Q224 60 159 130T94 309Q94 445 204 552T451 660ZM332 113Q473 113 555 191T637 413Q637 497 590 551T473 606T332 570T213 460T163 297T209 160T332 113ZM312
200T306 200T290 212T279 235T304 333T333 465Q316 479 316 494Q316 507 349 519T423 531T494 512T524 458T493 395T431 353T400 338Q400 326 458 274Q464 269 474 261T490 248T504 236Q517 224 517 217T511 205T496 200Q471 200 424 240T353 319Q323 215 318 208ZM471
459Q471 479 426 479Q408 479 382 471Q384 463 384 450T367 371Q372 374 391 384T421 400T444 416Q471 436 471 459Z" />
<glyph unicode="&#xaf;" horiz-adv-x="0" d="M-98 578Q-117 578 -134 595T-152 627Q-152 655 24 655Q119 655 156 651T194 632T164 611T20 591T-98 578Z" />
<glyph unicode="&#xb0;" horiz-adv-x="339" d="M241 654Q207 654 183 616T159 547T171 499T204 483Q238 483 261 520T285 588T273 637T241 654ZM260 725Q308 725 337 693T366 610Q366 540 312 478T186 415Q138 415 109 447T79 530Q79 600 133 662T260 725Z" />
<glyph unicode="&#xb1;" horiz-adv-x="600" d="M543 487Q604 487 604 462Q604 423 382 398Q349 230 336 207Q330 197 324 196Q309 196 294 214T278 248T299 390Q217 385 164 385Q142 385 123 406T103 447T129 467H235Q264 467 312 469Q326 569 326 627Q326 653
344 653T389 628T417 584T399 476Q531 487 543 487ZM495 152Q561 152 561 133T507 99T376 76Q217 60 133 60Q113 60 96 79T79 115T99 132Q185 132 329 142T495 152Z" />
<glyph unicode="&#xb2;" horiz-adv-x="308" d="M164 632Q156 621 150 621T129 632T113 651Q113 672 144 696T215 720T279 694T303 628Q303 570 256 514T136 412Q250 431 270 431Q307 431 307 413T232 376T117 358Q100 358 81 373T62 402T91 441T154 492T217 555T246
627T216 662Q189 662 164 632Z" />
<glyph unicode="&#xb3;" horiz-adv-x="311" d="M128 533Q128 553 192 585Q217 597 237 615T257 652Q257 668 237 668T188 651T151 634T131 646T118 667Q118 685 159 702T234 720T290 697T313 648T286 594T221 546Q308 527 308 478Q308 432 243 397T116 362T55
382Q55 392 102 404T196 434T243 478Q243 492 215 499T158 512T128 532V533Z" />
<glyph unicode="&#xb4;" horiz-adv-x="0" d="M173 848T186 830T199 797T197 775T185 760T168 747Q133 724 114 712T82 689T63 675Q37 658 27 658T9 666T1 688T13 718T50 757T89 795T111 818T128 834Q147 848 160 848Z" />
<glyph unicode="&#xb5;" horiz-adv-x="575" d="M492 511Q509 511 529 485T549 435Q549 423 499 261T437 57T401 15Q371 15 371 60Q371 90 393 170Q297 15 214 15Q186 15 167 32T143 75Q136 60 103 -17T52 -130Q18 -200 5 -200Q-10 -200 -25 -190T-40 -170T-24
-123Q47 47 79 136T141 322T187 464T218 511T250 500T269 479Q269 459 248 400Q188 224 188 132Q188 116 197 106T221 95Q261 95 317 169T415 333T471 483Q477 511 492 511Z" />
<glyph unicode="&#xb6;" horiz-adv-x="521" d="M70 466Q70 543 121 633T246 755Q279 769 341 778T437 787T486 782T518 751T535 700Q534 548 445 214Q390 15 370 15Q358 15 342 29T326 55T354 170T417 431T463 727Q430 717 369 708Q370 704 370 697Q369 544 280
214Q227 15 205 15Q192 15 177 29T161 55T176 123Q236 347 249 405Q202 368 165 368T99 400T70 466Z" />
<glyph unicode="&#xb7;" horiz-adv-x="237" d="M120 245T88 277T56 331T73 374T109 396T152 347T177 273Q177 265 166 255T145 245Q120 245 88 277Z" />
<glyph unicode="&#xb8;" horiz-adv-x="0" d="M-9 -56Q21 -56 52 -74T84 -113Q83 -157 22 -184T-104 -211Q-123 -211 -135 -204T-148 -187Q-148 -174 -122 -169T-57 -154T-1 -126Q-7 -117 -48 -109T-89 -90T-81 -61T-60 -16T-42 28T-8 46T20 23T-12 -56H-9Z" />
<glyph unicode="&#xb9;" horiz-adv-x="154" d="M179 681Q179 646 157 518T126 371T109 353T89 365T78 385T97 506T116 705Q116 724 128 724T159 708T179 681Z" />
<glyph unicode="&#xba;" horiz-adv-x="452" d="M237 698T207 651T176 550T214 468Q268 477 302 520T336 626T291 711Q237 698 207 651ZM403 622Q403 547 349 479T211 411Q167 411 138 455T108 554Q108 636 161 703T292 771Q343 771 373 725T403 622Z" />
<glyph unicode="&#xbb;" horiz-adv-x="833" d="M719 324Q719 295 698 276Q654 241 548 196T405 150T368 165T503 243T639 323Q639 344 578 380T453 435Q415 447 415 461Q415 471 429 484T457 497Q507 496 613 433T719 324ZM174 474Q230 474 337 423T444 325Q444
286 308 222T113 158Q85 158 85 175Q85 190 153 221T291 282T360 328Q360 347 298 372T166 411Q127 418 127 434Q127 444 144 459T174 474Z" />
<glyph unicode="&#xbc;" horiz-adv-x="783" d="M646 326Q658 326 678 307T698 273Q698 210 660 83T594 -45Q583 -45 575 -33T567 -9T572 23T588 76T605 138Q551 116 502 116T426 140T399 205T437 311T517 428T573 478T600 465T613 441T578 385Q470 249 470 210Q470
194 476 187T500 180T539 186T586 202T620 215Q626 257 626 304Q626 326 646 326ZM585 758T599 736T613 692T577 618T464 466T345 308Q210 112 163 49T101 -14Q93 -14 81 0T69 27T99 90T214 262Q407 538 551 740Q566 757 575 757ZM179 318T174 308T159 297T134
311T119 335T143 486T167 742Q167 762 182 762T221 743T244 711Q244 649 219 517Q215 496 208 453T196 390T186 344Z" />
<glyph unicode="&#xbd;" horiz-adv-x="787" d="M637 70Q683 70 683 50Q683 27 587 5T440 -18Q419 -18 396 1T372 42Q372 53 396 74T454 123T523 180T582 248T606 321Q606 370 568 370Q542 370 515 345T484 319Q474 319 456 331T437 353Q437 380 478 410T567 441T647
408T678 326Q678 249 613 175T452 44Q614 70 637 70ZM559 758Q570 758 584 736T599 693T563 618T450 466T331 308Q195 111 148 49T87 -14Q79 -14 67 0T55 27T77 76T147 184T246 326Q437 596 533 734Q547 755 551 756T559 758ZM160 308T156 303T144 297T120 311T105
339T117 413Q153 593 153 742Q153 762 168 762T207 743T230 711Q229 638 204 517Q201 500 196 471T188 424T181 384T173 348T165 322Z" />
<glyph unicode="&#xbe;" horiz-adv-x="876" d="M757 326Q769 326 788 307T807 273Q807 211 768 83T703 -45Q692 -45 685 -33T677 -9T683 24T699 77T716 138Q660 116 613 116T537 141T509 205T547 311T628 428T684 478T711 465T724 441T688 385Q581 251 581 210Q581
194 587 187T611 180T649 185T697 202T731 215Q737 257 737 304Q737 326 757 326ZM695 758T709 736T724 693T688 618T575 465T456 308Q320 111 273 49T212 -14Q204 -14 192 0T180 27T202 76T272 184T371 326Q562 596 611 666T663 742T668 748T671 752T676 756Q678
758 686 758ZM179 551V554Q179 574 262 618Q292 635 318 659T344 706T318 729T254 708T207 686T182 700T167 725Q167 747 219 769T313 792T384 763T413 702T377 633T292 569Q344 560 375 538T407 483Q407 426 324 382T163 337T86 362Q86 374 207 402Q252 413 290
435T328 485Q328 504 291 512T217 528T179 551Z" />
<glyph unicode="&#xbf;" horiz-adv-x="380" d="M296 699T327 668T359 615T342 574T308 553T267 601T243 674Q243 681 253 690T272 699Q296 699 327 668ZM236 62L234 88Q234 100 246 105T268 111T297 88T316 49Q316 -6 267 -49T153 -92T43 -51T-3 60Q-3 101 24
146T86 224Q186 323 210 382T243 449T260 457Q285 457 285 393Q285 352 254 305T185 223T116 144T84 67T105 15T158 -5T212 14T236 62Z" />
<glyph unicode="&#xc0;" horiz-adv-x="608" d="M564 363Q564 344 476 319Q484 215 484 142Q484 16 452 16Q435 16 425 37T409 110Q402 206 394 298Q349 286 312 277T200 246Q112 16 96 16T62 35T43 77Q43 87 100 219H93Q73 219 58 232T42 264T141 316Q157 352
167 381Q190 438 231 537T283 663T321 710T375 730Q406 730 430 631T470 386Q498 389 519 389Q564 389 564 363ZM237 342Q308 361 387 374Q369 545 352 631Q307 528 237 342ZM249 900T248 904T246 920T261 950T289 969T311 963T339 935T394 876T434 830T439 811T431
792T413 783T394 789T365 811T334 834T310 851T291 864T276 874T263 885T254 894Z" />
<glyph unicode="&#xc1;" horiz-adv-x="608" d="M564 363Q564 344 476 319Q484 215 484 142Q484 16 452 16Q435 16 425 37T409 110Q402 206 394 298Q349 286 312 277T200 246Q112 16 96 16T62 35T43 77Q43 87 100 219H93Q73 219 58 232T42 264T141 316Q157 352
167 381Q190 438 231 537T283 663T321 710T375 730Q406 730 430 631T470 386Q498 389 519 389Q564 389 564 363ZM237 342Q308 361 387 374Q369 545 352 631Q307 528 237 342ZM395 786T390 785T377 783T362 791T354 813T366 842T416 896Q446 923 459 937T482 958Q500
973 513 973T539 955T552 922T550 900T538 885T520 872Q486 849 467 837T435 814T416 800Q395 786 390 785Z" />
<glyph unicode="&#xc2;" horiz-adv-x="608" d="M564 363Q564 344 476 319Q484 215 484 142Q484 16 452 16Q435 16 425 37T409 110Q402 206 394 298Q349 286 312 277T200 246Q112 16 96 16T62 35T43 77Q43 87 100 219H93Q73 219 58 232T42 264T141 316Q157 352
167 381Q190 438 231 537T283 663T321 710T375 730Q406 730 430 631T470 386Q498 389 519 389Q564 389 564 363ZM237 342Q308 361 387 374Q369 545 352 631Q307 528 237 342ZM304 822T284 808T251 794T228 803T218 830Q218 866 287 905Q298 911 314 921T340 937T362
949Q384 961 394 961T412 956T426 945T442 925T460 903T480 880T501 857T516 838Q532 817 532 805T525 787T504 781T468 800T432 835T393 884Q365 870 335 846Z" />
<glyph unicode="&#xc3;" horiz-adv-x="608" d="M564 363Q564 344 476 319Q484 215 484 142Q484 16 452 16Q435 16 425 37T409 110Q402 206 394 298Q349 286 312 277T200 246Q112 16 96 16T62 35T43 77Q43 87 100 219H93Q73 219 58 232T42 264T141 316Q157 352
167 381Q190 438 231 537T283 663T321 710T375 730Q406 730 430 631T470 386Q498 389 519 389Q564 389 564 363ZM237 342Q308 361 387 374Q369 545 352 631Q307 528 237 342ZM269 787T254 787T230 795T221 817Q221 854 260 894T339 935Q363 935 381 923T409 896Q434
856 452 853Q469 856 490 889T531 923Q556 923 556 889T524 817T455 780Q401 780 343 868Q324 859 309 838T281 802Z" />
<glyph unicode="&#xc4;" horiz-adv-x="608" d="M564 363Q564 344 476 319Q484 215 484 142Q484 16 452 16Q435 16 425 37T409 110Q402 206 394 298Q349 286 312 277T200 246Q112 16 96 16T62 35T43 77Q43 87 100 219H93Q73 219 58 232T42 264T141 316Q157 352
167 381Q190 438 231 537T283 663T321 710T375 730Q406 730 430 631T470 386Q498 389 519 389Q564 389 564 363ZM237 342Q308 361 387 374Q369 545 352 631Q307 528 237 342ZM333 799Q310 799 284 825T257 871T271 907T301 925T338 886T359 832T351 808T333 799ZM483
799Q461 799 434 825T407 871T422 907T452 925T489 886T510 832T501 808T483 799Z" />
<glyph unicode="&#xc5;" horiz-adv-x="608" d="M564 363Q564 344 476 319Q484 215 484 142Q484 16 452 16Q435 16 425 37T409 110Q402 206 394 298Q349 286 312 277T200 246Q112 16 96 16T62 35T43 77Q43 87 100 219H93Q73 219 58 232T42 264T141 316Q157 352
167 381Q190 438 231 537T283 663T321 710T375 730Q406 730 430 631T470 386Q498 389 519 389Q564 389 564 363ZM237 342Q308 361 387 374Q369 545 352 631Q307 528 237 342ZM487 839T458 806T392 772T332 797T309 861T338 933T405 967T464 942T487 878ZM413 911T401
911T379 897T368 864T375 836T395 825T417 839T428 871T421 900Z" />
<glyph unicode="&#xc6;" horiz-adv-x="831" d="M606 631H554Q557 622 557 612Q557 535 516 396Q621 407 665 407Q744 407 744 376Q744 359 697 350T585 332T516 324T506 323T494 321Q443 150 443 132Q443 99 471 99Q586 99 725 136Q770 148 777 148Q791 148 791
127Q791 91 681 53T467 15Q421 15 387 42T352 105Q352 159 398 308Q353 302 282 291T193 278Q110 76 93 45T65 13Q49 13 34 30T18 62T35 119T85 237T176 458T258 646Q279 681 344 693T534 705T724 700T811 687T832 666Q832 631 606 631ZM421 385Q467 540 470 629Q355
623 342 607Q321 585 225 354Q302 370 421 385Z" />
<glyph unicode="&#xc7;" horiz-adv-x="603" d="M244 -33Q274 -33 305 -51T337 -90Q336 -134 275 -161T149 -188Q130 -188 118 -181T105 -164Q105 -151 131 -146T196 -131T252 -103Q246 -94 205 -86T164 -66Q164 -54 181 -18T204 32Q148 54 107 106T66 215Q66 309
127 427T285 632T471 718Q497 718 524 685T552 631T545 609T516 616T478 624Q439 624 384 584T279 485T194 351T159 220T187 140T262 114T357 127T436 158Q517 201 525 201Q542 201 542 179T498 120T388 53T267 21Q257 -4 241 -33H244Z" />
<glyph unicode="&#xc8;" horiz-adv-x="585" d="M208 333Q154 162 154 126Q154 114 161 107T181 99Q296 99 435 136Q480 148 487 148Q502 148 502 127Q502 91 392 53T178 15Q132 15 98 42T63 110T92 250T152 461T182 650Q182 661 186 673Q203 710 404 710T605 681Q605
661 562 654Q526 647 467 642T383 634T267 615V612Q267 544 230 407Q236 406 270 406T363 411T450 416T480 402Q480 367 398 350T208 333ZM287 900T286 904T284 920T299 950T327 969T349 963T377 935T432 876T472 830T477 811T469 792T451 783T432 789T403 811T372
834T348 851T329 864T314 874T301 885T292 894Z" />
<glyph unicode="&#xc9;" horiz-adv-x="585" d="M208 333Q154 162 154 126Q154 114 161 107T181 99Q296 99 435 136Q480 148 487 148Q502 148 502 127Q502 91 392 53T178 15Q132 15 98 42T63 110T92 250T152 461T182 650Q182 661 186 673Q203 710 404 710T605 681Q605
661 562 654Q526 647 467 642T383 634T267 615V612Q267 544 230 407Q236 406 270 406T363 411T450 416T480 402Q480 367 398 350T208 333ZM433 786T428 785T415 783T400 791T392 813T404 842T440 882T480 920T502 943T520 958Q538 973 551 973T577 955T590 922T588
900T576 885T558 872Q524 849 505 837T473 814T454 800Q433 786 428 785Z" />
<glyph unicode="&#xca;" horiz-adv-x="585" d="M208 333Q154 162 154 126Q154 114 161 107T181 99Q296 99 435 136Q480 148 487 148Q502 148 502 127Q502 91 392 53T178 15Q132 15 98 42T63 110T92 250T152 461T182 650Q182 661 186 673Q203 710 404 710T605 681Q605
661 562 654Q526 647 467 642T383 634T267 615V612Q267 544 230 407Q236 406 270 406T363 411T450 416T480 402Q480 367 398 350T208 333ZM342 822T322 808T289 794T266 803T256 830Q256 866 325 905Q336 911 352 921T378 937T400 949Q422 961 432 961T450 956T464
945T480 925T498 903T518 880T539 857T554 838Q570 817 570 805T563 787T542 781T506 800T470 835T431 884Q403 870 373 846Z" />
<glyph unicode="&#xcb;" horiz-adv-x="585" d="M208 333Q154 162 154 126Q154 114 161 107T181 99Q296 99 435 136Q480 148 487 148Q502 148 502 127Q502 91 392 53T178 15Q132 15 98 42T63 110T92 250T152 461T182 650Q182 661 186 673Q203 710 404 710T605 681Q605
661 562 654Q526 647 467 642T383 634T267 615V612Q267 544 230 407Q236 406 270 406T363 411T450 416T480 402Q480 367 398 350T208 333ZM371 799Q348 799 322 825T295 871T309 907T339 925T376 886T397 832T389 808T371 799ZM521 799Q499 799 472 825T445 871T460
907T490 925T527 886T548 832T539 808T521 799Z" />
<glyph unicode="&#xcc;" horiz-adv-x="310" d="M138 900T137 904T135 920T150 950T178 969T200 963T228 935T283 876T323 830T328 811T320 792T302 783T283 789T254 811T223 834T199 851T180 864T165 874T152 885T143 894ZM188 705T192 711T211 718T249 687T273
621T201 292Q194 265 182 215T163 137T148 78Q131 19 119 19T88 43T68 87T127 366T188 688Q188 705 192 711Z" />
<glyph unicode="&#xcd;" horiz-adv-x="310" d="M415 973T428 955T441 922T439 900T427 885T410 872Q375 849 356 837T324 814T305 800Q279 783 269 783T251 791T243 813T255 842T305 896Q335 923 348 937T370 958Q389 973 402 973ZM188 705T192 711T211 718T249
687T273 621T201 292Q194 265 182 215T163 137T148 78Q131 19 119 19T88 43T68 87T127 366T188 688Q188 705 192 711Z" />
<glyph unicode="&#xce;" horiz-adv-x="310" d="M414 826T417 817T421 801T414 787T393 781T357 800T321 835T282 884Q254 870 224 846T173 808T140 794T117 803T107 830Q107 866 176 905Q187 911 203 921T229 937T250 949Q273 961 283 961T301 956T315 945T331
925T349 903T369 880T390 857T405 838ZM188 705T192 711T211 718T249 687T273 621T201 292Q194 265 182 215T163 137T148 78Q131 19 119 19T88 43T68 87T127 366T188 688Q188 705 192 711Z" />
<glyph unicode="&#xcf;" horiz-adv-x="310" d="M357 925T378 886T399 832T391 808T372 799Q350 799 323 825T296 871T311 907T341 925ZM206 925T227 886T248 832T240 808T222 799Q199 799 173 825T146 871T160 907T190 925ZM188 705T192 711T211 718T249 687T273
621T201 292Q194 265 182 215T163 137T148 78Q131 19 119 19T88 43T68 87T127 366T188 688Q188 705 192 711Z" />
<glyph unicode="&#xd0;" horiz-adv-x="619" d="M165 703Q259 703 365 654T549 519T626 339Q626 278 542 196T346 55T162 -4Q143 -4 119 28T94 91T135 275Q85 271 74 271T38 281T14 308Q14 331 58 340T158 357Q209 538 215 610Q183 623 164 644T145 684T165 703ZM534
350Q534 412 460 484T288 589Q293 571 293 555Q293 513 251 367Q264 368 286 368T330 358T351 330T319 305T229 287L212 231Q193 165 181 86Q250 95 335 146T477 257T534 350Z" />
<glyph unicode="&#xd1;" horiz-adv-x="677" d="M386 935Q410 935 428 923T456 896Q481 856 499 853Q516 856 537 889T578 923Q603 923 603 889T571 817T502 780Q448 780 390 868Q371 859 356 838T328 802T301 787T277 795T268 817Q268 854 307 894T386 935ZM645
659Q645 577 620 426T552 146T471 17Q458 17 442 30T416 62Q386 132 239 506Q209 390 173 244T124 57T103 17Q90 17 72 39T53 86T118 367T185 689Q185 721 202 721Q213 721 232 703T261 662Q422 244 465 150Q530 322 552 561Q562 671 562 680Q564 723 582 723T623
700T645 659Z" />
<glyph unicode="&#xd2;" horiz-adv-x="613" d="M351 900T350 904T348 920T363 950T391 969T413 963T441 935T469 905Q534 839 539 823Q541 818 541 810T533 792T515 783T496 789T467 811T436 834T412 851T393 864T378 874T365 885T356 894ZM500 541T471 589T401
637T301 575T193 413T145 220Q145 165 169 131T225 96Q275 96 340 155T453 300T500 464ZM54 214Q54 305 87 399T171 563T283 677T396 722Q480 722 536 646T592 473T539 272T398 92T219 17Q153 17 104 82T54 214Z" />
<glyph unicode="&#xd3;" horiz-adv-x="613" d="M500 541T471 589T401 637T301 575T193 413T145 220Q145 165 169 131T225 96Q275 96 340 155T453 300T500 464ZM54 214Q54 305 87 399T171 563T283 677T396 722Q480 722 536 646T592 473T539 272T398 92T219 17Q153
17 104 82T54 214ZM628 973T641 955T654 922T652 900T640 885T622 872Q588 849 569 837T537 814T518 800Q493 783 482 783T464 791T456 813T468 842T504 882T544 920T566 943T584 958Q602 973 615 973Z" />
<glyph unicode="&#xd4;" horiz-adv-x="613" d="M500 541T471 589T401 637T301 575T193 413T145 220Q145 165 169 131T225 96Q275 96 340 155T453 300T500 464ZM54 214Q54 305 87 399T171 563T283 677T396 722Q480 722 536 646T592 473T539 272T398 92T219 17Q153
17 104 82T54 214ZM627 826T630 817T634 801T627 787T606 781T570 800T534 835T495 884Q467 870 437 846T386 808T353 794T330 803T320 830Q320 866 389 905Q400 911 416 921T442 937T464 949Q487 961 496 961T514 956T528 945T544 925T562 903T582 880T603 857T618
838Z" />
<glyph unicode="&#xd5;" horiz-adv-x="613" d="M441 935Q465 935 483 923T511 896Q536 856 554 853Q571 856 592 889T633 923Q658 923 658 889T626 817T557 780Q503 780 445 868Q426 859 411 838T383 802T356 787T332 795T323 817Q323 854 362 894T441 935ZM500
541T471 589T401 637T301 575T193 413T145 220Q145 165 169 131T225 96Q275 96 340 155T453 300T500 464ZM54 214Q54 305 87 399T171 563T283 677T396 722Q480 722 536 646T592 473T539 272T398 92T219 17Q153 17 104 82T54 214Z" />
<glyph unicode="&#xd6;" horiz-adv-x="613" d="M500 541T471 589T401 637T301 575T193 413T145 220Q145 165 169 131T225 96Q275 96 340 155T453 300T500 464ZM54 214Q54 305 87 399T171 563T283 677T396 722Q480 722 536 646T592 473T539 272T398 92T219 17Q153
17 104 82T54 214ZM570 925T591 886T612 832T603 808T585 799Q563 799 536 825T509 871T524 907T554 925ZM419 925T440 886T461 832T453 808T435 799Q412 799 386 825T359 871T373 907T403 925Z" />
<glyph unicode="&#xd7;" horiz-adv-x="488" d="M503 504Q503 498 477 474T399 401T310 317Q324 299 346 272T381 227T408 192Q434 157 434 146Q434 124 409 124Q363 124 253 261Q138 149 119 137T87 124T58 139T41 165T60 193T124 248T206 322Q155 391 120 451T85
530T103 549Q131 549 161 538T191 510Q191 476 262 380Q372 500 408 527Q437 549 452 549T485 534T503 504Z" />
<glyph unicode="&#xd8;" horiz-adv-x="613" d="M566 602Q597 540 597 459T544 272T403 92T225 17Q168 17 119 68Q75 15 63 15T44 23T36 44T81 119Q54 168 54 214Q54 305 87 399T171 563T283 677T396 722Q470 722 527 660Q580 715 600 715Q624 715 624 691T581
619L566 602ZM145 220Q145 207 146 201Q164 224 207 276T339 438T469 595Q439 637 400 637T301 575T193 413T145 220ZM505 458Q505 492 498 525Q332 335 171 132Q196 96 230 96Q280 96 345 155T458 300T505 458Z" />
<glyph unicode="&#xd9;" horiz-adv-x="592" d="M231 900T230 904T228 920T243 950T271 969T293 963T321 935T376 876T416 830T421 811T413 792T395 783T376 789T347 811T316 834T292 851T273 864T258 874T245 885T236 894ZM201 719T225 693T249 631T209 437T168
223T189 131T243 96T316 134T390 233T448 383T472 562Q472 604 468 646T463 698Q463 719 481 719Q504 719 534 685T564 596Q564 442 519 307T398 92T236 11Q173 11 127 72T80 212T122 460T164 689Q164 706 168 712T186 719Z" />
<glyph unicode="&#xda;" horiz-adv-x="592" d="M201 719T225 693T249 631T209 437T168 223T189 131T243 96T316 134T390 233T448 383T472 562Q472 604 468 646T463 698Q463 719 481 719Q504 719 534 685T564 596Q564 442 519 307T398 92T236 11Q173 11 127 72T80
212T122 460T164 689Q164 706 168 712T186 719ZM508 973T521 955T534 922T532 900T520 885T502 872Q468 849 449 837T417 814T398 800Q373 783 362 783T344 791T336 813T348 842T398 896Q428 923 441 937T464 958Q482 973 495 973Z" />
<glyph unicode="&#xdb;" horiz-adv-x="592" d="M201 719T225 693T249 631T209 437T168 223T189 131T243 96T316 134T390 233T448 383T472 562Q472 604 468 646T463 698Q463 719 481 719Q504 719 534 685T564 596Q564 442 519 307T398 92T236 11Q173 11 127 72T80
212T122 460T164 689Q164 706 168 712T186 719ZM507 826T510 817T514 801T507 787T486 781T450 800T414 835T375 884Q347 870 317 846T266 808T233 794T210 803T200 830Q200 866 269 905Q280 911 296 921T322 937T344 949Q366 961 376 961T394 956T408 945T424
925T442 903T462 880T483 857T498 838Z" />
<glyph unicode="&#xdc;" horiz-adv-x="592" d="M201 719T225 693T249 631T209 437T168 223T189 131T243 96T316 134T390 233T448 383T472 562Q472 604 468 646T463 698Q463 719 481 719Q504 719 534 685T564 596Q564 442 519 307T398 92T236 11Q173 11 127 72T80
212T122 460T164 689Q164 706 168 712T186 719ZM450 925T471 886T492 832T483 808T465 799Q443 799 416 825T389 871T404 907T434 925ZM299 925T320 886T341 832T333 808T315 799Q292 799 266 825T239 871T253 907T283 925Z" />
<glyph unicode="&#xdd;" horiz-adv-x="575" d="M514 973T527 955T540 922T538 900T526 885T508 872Q474 849 455 837T423 814T404 800Q378 783 368 783T350 791T342 813T354 842T390 882T430 920T452 943T470 958Q488 973 501 973ZM327 373Q345 373 392 458T489
630T560 716T594 701T607 665T569 581T467 415T339 190T251 39T212 9Q190 9 190 45Q190 73 218 130Q227 147 232 158T248 191T265 223T283 259T302 295Q243 310 194 369T118 502T92 646T132 716Q148 716 157 685T181 596T218 490T273 407T327 373Z" />
<glyph unicode="&#xde;" horiz-adv-x="503" d="M301 548Q361 548 416 496T471 386Q471 308 396 252Q305 184 162 184Q123 42 108 22Q103 15 98 15Q83 15 67 37T51 81T78 206Q158 524 158 650Q158 667 162 674T183 681T225 655T251 592Q251 574 245 540Q277 548
301 548ZM387 385Q387 417 359 437T297 458T226 442Q199 328 182 263Q193 262 214 264Q281 269 334 304T387 385Z" />
<glyph unicode="&#xdf;" horiz-adv-x="585" d="M261 93L311 91Q356 91 397 117T439 188Q439 218 418 245T371 290T325 330T303 371T324 405T371 435T417 472T439 522Q439 565 409 596T343 627T278 591T236 492Q139 15 92 15Q78 15 64 32T49 69T64 142Q125 372
152 517Q168 606 219 658T356 710Q421 710 472 651T523 528Q523 498 510 473T479 432T442 405T411 384T398 368T417 345T460 309T503 257T523 185Q523 110 463 64T325 17Q282 17 259 33T235 72Q235 93 261 93Z" />
<glyph unicode="&#xe0;" horiz-adv-x="472" d="M317 735T336 714T391 655T431 609T436 590T428 571T410 562T391 568T362 590T331 613T307 630T288 643T273 653T260 664T250 674Q243 683 243 697T258 729T286 748T308 742ZM300 511Q345 511 383 466T421 384T396
309Q408 294 408 283Q408 255 396 187T381 98T376 65T372 40Q367 15 353 15Q335 15 324 46T310 128Q221 15 145 15Q99 15 55 54T10 136Q10 196 54 284T168 442T300 511ZM346 335Q346 428 309 428Q270 428 218 373T130 247T94 136Q94 119 108 109T141 98Q188 98
247 161T329 316Q332 331 346 334V335Z" />
<glyph unicode="&#xe1;" horiz-adv-x="472" d="M523 752T536 734T549 701T547 679T535 664T518 651Q483 628 464 616T432 593T413 579Q388 562 377 562T359 570T351 592T363 622T400 661T439 699T461 722T478 738Q497 752 510 752ZM300 511Q345 511 383 466T421
384T396 309Q408 294 408 283Q408 255 396 187T381 98T376 65T372 40Q367 15 353 15Q335 15 324 46T310 128Q221 15 145 15Q99 15 55 54T10 136Q10 196 54 284T168 442T300 511ZM346 335Q346 428 309 428Q270 428 218 373T130 247T94 136Q94 119 108 109T141 98Q188
98 247 161T329 316Q332 331 346 334V335Z" />
<glyph unicode="&#xe2;" horiz-adv-x="472" d="M522 605T525 596T529 580T522 566T501 560T465 579T429 614T390 663Q362 649 332 625T281 587T248 573T225 582T215 609Q215 645 284 684Q295 690 311 700T337 716T358 728Q381 740 391 740T409 735T423 724T439
704T457 682T477 659T498 636T513 617ZM300 511Q345 511 383 466T421 384T396 309Q408 294 408 283Q408 255 396 187T381 98T376 65T372 40Q367 15 353 15Q335 15 324 46T310 128Q221 15 145 15Q99 15 55 54T10 136Q10 196 54 284T168 442T300 511ZM346 335Q346
428 309 428Q270 428 218 373T130 247T94 136Q94 119 108 109T141 98Q188 98 247 161T329 316Q332 331 346 334V335Z" />
<glyph unicode="&#xe3;" horiz-adv-x="472" d="M528 702Q553 702 553 668T521 596T452 559Q398 559 340 647Q321 638 306 617T278 581T251 566T227 574T218 596Q218 633 257 673T336 714Q360 714 378 702T406 676Q431 635 449 632Q466 635 487 668T528 702ZM300
511Q345 511 383 466T421 384T396 309Q408 294 408 283Q408 255 396 187T381 98T376 65T372 40Q367 15 353 15Q335 15 324 46T310 128Q221 15 145 15Q99 15 55 54T10 136Q10 196 54 284T168 442T300 511ZM346 335Q346 428 309 428Q270 428 218 373T130 247T94 136Q94
119 108 109T141 98Q188 98 247 161T329 316Q332 331 346 334V335Z" />
<glyph unicode="&#xe4;" horiz-adv-x="472" d="M404 669T419 686T449 704T486 665T507 611T499 587T480 578Q458 578 431 604T404 650ZM300 511Q345 511 383 466T421 384T396 309Q408 294 408 283Q408 255 396 187T381 98T376 65T372 40Q367 15 353 15Q335 15
324 46T310 128Q221 15 145 15Q99 15 55 54T10 136Q10 196 54 284T168 442T300 511ZM346 335Q346 428 309 428Q270 428 218 373T130 247T94 136Q94 119 108 109T141 98Q188 98 247 161T329 316Q332 331 346 334V335ZM330 578Q307 578 281 604T254 650T268 686T298
704T335 665T356 611T348 587T330 578Z" />
<glyph unicode="&#xe5;" horiz-adv-x="472" d="M306 679T335 712T402 746T461 721T484 657T455 585T389 551T329 576T306 640ZM365 625T372 615T392 604T414 618T425 650T418 679T398 690T376 676T365 643ZM300 511Q345 511 383 466T421 384T396 309Q408 294 408
283Q408 255 396 187T381 98T376 65T372 40Q367 15 353 15Q335 15 324 46T310 128Q221 15 145 15Q99 15 55 54T10 136Q10 196 54 284T168 442T300 511ZM346 335Q346 428 309 428Q270 428 218 373T130 247T94 136Q94 119 108 109T141 98Q188 98 247 161T329 316Q332
331 346 334V335Z" />
<glyph unicode="&#xe6;" horiz-adv-x="743" d="M368 345Q365 428 323 428T229 372T144 247T111 136Q111 119 124 109T153 98Q199 98 248 147T341 283Q351 317 368 345ZM437 298Q479 289 529 289T617 305T655 349T631 404T575 432T505 394T437 298ZM314 511Q349
511 380 487T427 428Q501 511 575 511Q635 511 683 455T732 346T675 259T549 225T413 241Q399 199 399 164T420 109T491 90T593 107T651 125Q677 125 677 105Q677 78 616 47T493 15T385 50T327 142Q281 80 241 48T158 15T72 54T29 138Q29 199 69 286T179 442T314
511Z" />
<glyph unicode="&#xe7;" horiz-adv-x="447" d="M179 -33Q209 -33 240 -51T272 -90Q271 -134 210 -161T84 -188Q65 -188 53 -181T40 -164Q40 -151 66 -146T131 -131T187 -103Q181 -94 140 -86T99 -66Q99 -56 115 -21T137 27Q93 45 63 82T32 163Q32 231 74 313T182
453T312 511Q353 511 384 474T415 409Q415 401 410 396T396 390T362 408T319 426Q265 426 193 331T121 165Q121 134 140 116T203 98T283 108T340 129T371 140Q390 140 390 121Q390 93 324 56T200 15Q189 -12 176 -33H179Z" />
<glyph unicode="&#xe8;" horiz-adv-x="438" d="M426 292T369 259T239 225T107 241Q93 197 93 163T114 109T185 90T287 107T345 125Q371 125 371 105Q371 78 310 47T191 15Q113 15 64 61T15 179T53 327T151 458T270 511T377 455T426 346ZM275 432Q238 432 198 394T130
298Q171 289 221 289T310 305T348 349T324 404T275 432ZM169 679T168 683T166 699T181 729T209 748T231 742T259 714T314 655T354 609T359 590T351 571T333 562T314 568T285 590T254 613T230 630T211 643T196 653T183 664T174 673Z" />
<glyph unicode="&#xe9;" horiz-adv-x="438" d="M446 752T459 734T472 701T470 679T458 664T440 651Q406 628 387 616T355 593T336 579Q310 562 300 562T282 570T274 592T286 622T322 661T362 699T384 722T402 738Q420 752 433 752ZM91 405T151 458T270 511T377
455T426 346T369 259T239 225T107 241Q93 197 93 163T114 109T185 90T287 107T345 125Q371 125 371 105Q371 78 310 47T191 15Q113 15 64 61T15 179T53 327ZM130 298Q171 289 221 289T310 305T348 349T324 404T275 432Q238 432 198 394T130 298Z" />
<glyph unicode="&#xea;" horiz-adv-x="438" d="M445 605T448 596T452 580T445 566T424 560T388 579T352 614T313 663Q285 649 255 625T204 587T171 573T148 582T138 609Q138 645 207 684Q218 690 234 700T260 716T282 728Q304 740 314 740T332 735T346 724T362
704T380 682T400 659T421 636T436 617ZM91 405T151 458T270 511T377 455T426 346T369 259T239 225T107 241Q93 197 93 163T114 109T185 90T287 107T345 125Q371 125 371 105Q371 78 310 47T191 15Q113 15 64 61T15 179T53 327ZM130 298Q171 289 221 289T310 305T348
349T324 404T275 432Q238 432 198 394T130 298Z" />
<glyph unicode="&#xeb;" horiz-adv-x="438" d="M91 405T151 458T270 511T377 455T426 346T369 259T239 225T107 241Q93 197 93 163T114 109T185 90T287 107T345 125Q371 125 371 105Q371 78 310 47T191 15Q113 15 64 61T15 179T53 327ZM130 298Q171 289 221 289T310
305T348 349T324 404T275 432Q238 432 198 394T130 298ZM253 579Q230 579 204 605T177 651T191 687T221 705T258 666T279 612T271 588T253 579ZM403 579Q381 579 354 605T327 651T342 687T372 705T409 666T430 612T421 588T403 579Z" />
<glyph unicode="&#xec;" horiz-adv-x="238" d="M71 679T70 683T68 699T83 729T111 748T133 742T161 714T216 655T256 609T261 590T253 571T235 562T216 568T187 590T156 613T132 630T113 643T98 653T85 664T76 673ZM215 444Q215 387 112 66Q97 16 69 16Q55 16
45 27T35 53T45 109T72 208T110 365T141 488T165 511T198 488T215 444Z" />
<glyph unicode="&#xed;" horiz-adv-x="238" d="M215 444Q215 387 112 66Q97 16 69 16Q55 16 45 27T35 53T45 109T72 208T110 365T141 488T165 511T198 488T215 444ZM347 752T360 734T373 701T371 679T359 664T342 651Q307 628 288 616T256 593T237 579Q211 562
201 562T183 570T175 592T187 622T224 661T263 699T285 722T302 738Q321 752 334 752Z" />
<glyph unicode="&#xee;" horiz-adv-x="238" d="M215 444Q215 387 112 66Q97 16 69 16Q55 16 45 27T35 53T45 109T72 208T110 365T141 488T165 511T198 488T215 444ZM346 605T349 596T353 580T346 566T325 560T289 579T253 614T214 663Q186 649 156 625T105 587T72
573T49 582T39 609Q39 645 108 684Q119 690 135 700T161 716T182 728Q206 740 215 740T233 735T247 724T263 704T281 682T301 659T322 636T337 617Z" />
<glyph unicode="&#xef;" horiz-adv-x="238" d="M215 444Q215 387 112 66Q97 16 69 16Q55 16 45 27T35 53T45 109T72 208T110 365T141 488T165 511T198 488T215 444ZM289 705T310 666T331 612T323 588T304 579Q282 579 255 605T228 651T243 687T273 705ZM138 705T159
666T180 612T172 588T154 579Q131 579 105 605T78 651T92 687T122 705Z" />
<glyph unicode="&#xf0;" horiz-adv-x="452" d="M281 591Q245 643 214 643Q206 643 190 636T164 628Q146 628 146 650T171 693T223 713Q297 713 358 621Q435 651 446 651Q469 651 469 635Q469 616 384 576Q423 493 423 399T388 217T290 72T155 15Q104 15 68 60T31
177Q31 294 98 380T257 467Q295 467 332 432Q328 492 307 543Q222 511 206 511Q174 511 174 529Q174 544 197 556T249 579T281 591ZM162 86Q216 86 271 176T333 365Q303 402 274 402Q219 402 169 335T119 169Q119 138 131 112T162 86Z" />
<glyph unicode="&#xf1;" horiz-adv-x="532" d="M225 352T285 431T384 511T457 470T492 383Q492 311 459 207Q399 15 351 15Q329 15 329 45Q329 66 350 130T390 257T409 351T400 398T381 413T361 407T339 387T315 360T288 321T260 279T228 228T196 178T167 132T139
87T115 52Q90 15 76 15T42 37T23 77Q23 82 30 104Q49 162 72 247T97 442Q100 515 118 515Q140 515 162 492T184 442T168 336T129 189Q225 352 285 431ZM203 566T188 566T164 574T155 596Q155 633 194 673T273 714Q297 714 315 702T343 676Q368 635 386 632Q403
635 424 668T465 702Q490 702 490 668T458 596T389 559Q335 559 277 647Q258 638 243 617T215 581Z" />
<glyph unicode="&#xf2;" horiz-adv-x="452" d="M183 679T182 683T180 699T195 729T223 748T245 742T273 714T328 655T368 609T373 590T365 571T347 562T328 568T299 590T268 613T244 630T225 643T210 653T197 664T188 673ZM221 431T172 344T122 179T160 83Q232
97 282 181T333 341Q333 375 322 405T290 450Q221 431 172 344ZM337 511T377 461T417 338T382 190T286 65T155 15Q104 15 70 62T36 181T70 332T161 460T277 511Z" />
<glyph unicode="&#xf3;" horiz-adv-x="452" d="M221 431T172 344T122 179T160 83Q232 97 282 181T333 341Q333 375 322 405T290 450Q221 431 172 344ZM337 511T377 461T417 338T382 190T286 65T155 15Q104 15 70 62T36 181T70 332T161 460T277 511ZM460 752T473
734T486 701T484 679T472 664T454 651Q420 628 401 616T369 593T350 579Q324 562 314 562T296 570T288 592T300 622T337 661T376 699T398 722T416 738Q434 752 447 752Z" />
<glyph unicode="&#xf4;" horiz-adv-x="452" d="M221 431T172 344T122 179T160 83Q232 97 282 181T333 341Q333 375 322 405T290 450Q221 431 172 344ZM337 511T377 461T417 338T382 190T286 65T155 15Q104 15 70 62T36 181T70 332T161 460T277 511ZM459 605T462
596T466 580T459 566T438 560T402 579T366 614T327 663Q299 649 269 625T218 587T185 573T162 582T152 609Q152 645 221 684Q232 690 248 700T274 716T296 728Q318 740 328 740T346 735T360 724T376 704T394 682T414 659T435 636T450 617Z" />
<glyph unicode="&#xf5;" horiz-adv-x="452" d="M273 714Q297 714 315 702T343 676Q368 635 386 632Q403 635 424 668T465 702Q490 702 490 668T458 596T389 559Q335 559 277 647Q258 638 243 617T215 581T188 566T164 574T155 596Q155 633 194 673T273 714ZM221
431T172 344T122 179T160 83Q232 97 282 181T333 341Q333 375 322 405T290 450Q221 431 172 344ZM337 511T377 461T417 338T382 190T286 65T155 15Q104 15 70 62T36 181T70 332T161 460T277 511Z" />
<glyph unicode="&#xf6;" horiz-adv-x="452" d="M221 431T172 344T122 179T160 83Q232 97 282 181T333 341Q333 375 322 405T290 450Q221 431 172 344ZM337 511T377 461T417 338T382 190T286 65T155 15Q104 15 70 62T36 181T70 332T161 460T277 511ZM402 705T423
666T444 612T435 588T417 579Q395 579 368 605T341 651T356 687T386 705ZM251 705T272 666T293 612T285 588T267 579Q244 579 218 605T191 651T205 687T235 705Z" />
<glyph unicode="&#xf7;" horiz-adv-x="600" d="M353 445T321 477T289 531T306 574T342 596T385 547T410 472Q410 464 399 455T378 445Q353 445 321 477ZM265 49T233 81T201 134T218 177T254 199T297 151T322 77Q322 69 311 59T290 49Q265 49 233 81ZM102 280Q78
280 59 300T40 341T67 362Q235 362 368 371T538 381Q606 381 606 359Q606 322 443 301T102 280Z" />
<glyph unicode="&#xf8;" horiz-adv-x="457" d="M444 343Q444 226 358 121T165 15Q125 15 88 49Q55 15 40 15Q20 15 20 34Q20 45 57 92Q36 132 36 177Q36 252 74 329T175 459T304 511Q352 511 388 477Q427 513 451 513T475 493Q475 478 439 437L427 423Q444 386
444 343ZM113 167V162Q225 291 274 349T341 427Q326 445 306 450Q234 442 174 347T113 167ZM370 351V360Q204 174 134 98Q148 81 165 77Q218 79 267 129T343 241T370 351Z" />
<glyph unicode="&#xf9;" horiz-adv-x="479" d="M388 499T392 505T409 511T442 485T462 435Q462 422 418 281T350 57Q338 15 316 15Q303 15 294 26T285 66T308 171Q266 103 217 59T128 15T51 53T15 131Q15 226 70 368T163 511Q181 511 194 495T208 457Q208 448
181 393T127 263T100 132Q100 116 110 106T134 95Q172 95 224 162T320 318T384 483Q388 499 392 505ZM182 679T181 683T179 699T194 729T222 748T244 742T272 714T327 655T367 609T372 590T364 571T346 562T327 568T298 590T267 613T243 630T224 643T209 653T196
664T187 673Z" />
<glyph unicode="&#xfa;" horiz-adv-x="479" d="M459 752T472 734T485 701T483 679T471 664T454 651Q419 628 400 616T368 593T349 579Q323 562 313 562T295 570T287 592T299 622T336 661T375 699T397 722T414 738Q433 752 446 752ZM388 499T392 505T409 511T442
485T462 435Q462 422 418 281T350 57Q338 15 316 15Q303 15 294 26T285 66T308 171Q266 103 217 59T128 15T51 53T15 131Q15 226 70 368T163 511Q181 511 194 495T208 457Q208 448 181 393T127 263T100 132Q100 116 110 106T134 95Q172 95 224 162T320 318T384
483Q388 499 392 505Z" />
<glyph unicode="&#xfb;" horiz-adv-x="479" d="M388 499T392 505T409 511T442 485T462 435Q462 422 418 281T350 57Q338 15 316 15Q303 15 294 26T285 66T308 171Q266 103 217 59T128 15T51 53T15 131Q15 226 70 368T163 511Q181 511 194 495T208 457Q208 448
181 393T127 263T100 132Q100 116 110 106T134 95Q172 95 224 162T320 318T384 483Q388 499 392 505ZM237 601T217 587T184 573T161 582T151 609Q151 645 220 684Q231 690 247 700T273 716T294 728Q318 740 327 740T345 735T359 724T375 704T393 682T413 659T434
636T449 616Q465 596 465 584T458 566T437 560T401 579T365 614T326 663Q298 649 268 625Z" />
<glyph unicode="&#xfc;" horiz-adv-x="479" d="M388 499T392 505T409 511T442 485T462 435Q462 422 418 281T350 57Q338 15 316 15Q303 15 294 26T285 66T308 171Q266 103 217 59T128 15T51 53T15 131Q15 226 70 368T163 511Q181 511 194 495T208 457Q208 448
181 393T127 263T100 132Q100 116 110 106T134 95Q172 95 224 162T320 318T384 483Q388 499 392 505ZM266 579Q243 579 217 605T190 651T204 687T234 705T271 666T292 612T284 588T266 579ZM416 579Q394 579 367 605T340 651T355 687T385 705T422 666T443 612T435
588T416 579Z" />
<glyph unicode="&#xfd;" horiz-adv-x="469" d="M483 752T496 734T509 701T507 679T495 664T478 651Q443 628 424 616T392 593T373 579Q347 562 337 562T319 570T311 592T323 622T360 661T399 699T421 722T438 738Q457 752 470 752ZM438 511T456 488T475 435Q475
415 434 299T379 142T340 32T292 -102Q242 -245 142 -245Q85 -245 33 -211T-19 -139Q-19 -125 -7 -108T15 -91T44 -113Q102 -179 143 -179Q174 -179 199 -125T246 -2T271 74T277 92T284 112Q213 15 144 15Q102 15 67 54T31 146T57 289T118 445T175 511Q193 511
208 495T224 461T198 390Q117 224 117 132Q117 116 127 106T151 95Q187 95 237 159T329 311Q364 385 402 500Q406 511 422 511Z" />
<glyph unicode="&#xfe;" horiz-adv-x="526" d="M218 474Q282 503 334 503T443 444T500 322T449 203T330 118T213 88T135 110Q56 -200 43 -200T10 -179T-9 -137T34 54Q161 565 161 716Q161 732 165 739T185 746T222 717T245 651T218 474ZM193 162Q267 162 343 212T420
322Q420 363 392 390T318 418T198 373Q185 308 150 172Q180 162 193 162Z" />
<glyph unicode="&#xff;" horiz-adv-x="469" d="M438 511T456 488T475 435Q475 415 434 299T379 142T340 32T292 -102Q242 -245 142 -245Q85 -245 33 -211T-19 -139Q-19 -125 -7 -108T15 -91T44 -113Q102 -179 143 -179Q174 -179 199 -125T246 -2T271 74T277 92T284
112Q213 15 144 15Q102 15 67 54T31 146T57 289T118 445T175 511Q193 511 208 495T224 461T198 390Q117 224 117 132Q117 116 127 106T151 95Q187 95 237 159T329 311Q364 385 402 500Q406 511 422 511ZM290 578Q267 578 241 604T214 650T228 686T258 704T295 665T316
611T308 587T290 578ZM440 578Q418 578 391 604T364 650T379 686T409 704T446 665T467 611T459 587T440 578Z" />
<glyph unicode="&#x2013;" horiz-adv-x="610" d="M185 255T154 249T110 242T82 258T67 290Q67 312 232 342T511 373Q572 373 572 348Q573 328 480 309Q448 302 392 293T309 280T234 265Z" />
<glyph unicode="&#x2014;" horiz-adv-x="917" d="M790 366Q889 366 889 338Q889 316 785 306Q721 300 591 292T393 278T222 257T106 243T80 258T67 292Q67 325 296 345T790 366Z" />
<glyph unicode="&#x2018;" horiz-adv-x="274" d="M272 845Q300 845 300 823Q300 810 277 788T232 737T209 683T218 646T238 630Q266 619 266 600T250 567T214 553Q175 553 147 580T119 654Q119 717 177 781T272 845Z" />
<glyph unicode="&#x2019;" horiz-adv-x="274" d="M153 553Q125 553 125 575Q125 587 148 609T194 660T217 714T208 751T188 768Q159 779 159 798T175 831T211 845Q250 845 277 818T305 744Q305 681 248 617T153 553Z" />
<glyph unicode="&#x201a;" horiz-adv-x="408" d="M27 -176Q7 -176 7 -162Q7 -151 28 -126Q91 -51 91 -1Q91 15 79 25T53 45T40 67T57 101T93 122Q125 122 149 93T174 26Q174 -37 120 -106T27 -176Z" />
<glyph unicode="&#x201c;" horiz-adv-x="456" d="M437 839Q464 839 464 816Q464 804 445 782T407 733T388 679T405 631T422 594T409 566T377 553Q341 553 317 581T293 654Q293 715 343 777T437 839ZM226 845Q253 845 253 822Q253 810 234 788T195 736T175 678T192
629T209 593T197 566T164 553Q128 553 104 581T79 654Q79 717 134 781T226 845Z" />
<glyph unicode="&#x201d;" horiz-adv-x="655" d="M249 559Q222 559 222 582Q222 594 241 616T279 665T298 719T281 767T264 804T277 832T309 845Q345 845 369 817T393 744Q393 683 343 621T249 559ZM457 553Q429 553 429 576Q429 588 448 610T487 662T507 720T490
769T473 805T486 832T519 845Q555 845 579 817T603 744Q603 681 549 617T457 553Z" />
<glyph unicode="&#x201e;" horiz-adv-x="600" d="M27 -176Q7 -176 7 -162Q7 -151 28 -126Q91 -51 91 -1Q91 15 79 25T53 45T40 67T57 101T93 122Q125 122 149 93T174 26Q174 -37 120 -106T27 -176Z" />
<glyph unicode="&#x2022;" horiz-adv-x="237" d="M128 239T89 278T50 345T71 398T115 425T168 365T199 273Q199 264 186 252T160 239Q128 239 89 278Z" />
<glyph unicode="&#x2039;" horiz-adv-x="578" d="M399 497Q417 497 433 486T450 464Q450 448 415 438Q327 410 248 374T168 318Q168 301 230 271T354 213T417 172Q417 151 375 151T209 212T85 310Q85 324 96 345T119 374Q161 408 260 452T399 497Z" />
<glyph unicode="&#x203a;" horiz-adv-x="591" d="M478 324Q478 294 457 276Q414 241 308 196T164 150T127 165T262 243T398 323Q398 344 337 380T213 435Q174 447 174 461Q174 471 189 484T216 497Q266 496 372 433T478 324Z" />
</font>
</defs>
</svg>
